<svg xmlns="http://www.w3.org/2000/svg" xml:space="preserve" width="200.46007" height="320.68271" x="0px" y="0px" viewBox="-13.833 -11.159 200.46007 320.68271"><g fill-rule="evenodd" clip-rule="evenodd" style="stroke-width:.623566"><path fill="#a38054" d="M52.203 153.823h-3.155l-.553 2.721c-.221 1.067-.551 3.186-.614 4.159h-.017c-.061-1.332-.282-2.389-.439-3.218l-.709-3.662h-3.132l-.566 3.031c-.3 1.621-.488 2.982-.552 3.863h-.014c-.017-.408-.112-1.476-.629-3.936l-.616-2.959h-3.124l2.509 10.946h3.371l.581-3.17c.267-1.432.502-2.892.534-3.439h.019c.046.687.299 2.118.534 3.439l.567 3.17h3.31zM57.633 164.929c3.918 0 4.91-2.937 4.91-6.075 0-2.397-1.086-5.243-4.816-5.243-2.895 0-5.038 2.042-5.038 5.933 0 3.283 1.763 5.385 4.944 5.385zm.049-2.211c-1.165 0-1.841-.694-1.841-3.486 0-2.093.533-3.424 1.809-3.424 1.211 0 1.746.657 1.746 3.393 0 2.808-.521 3.517-1.714 3.517zM72.956 164.77a150.227 150.227 0 0 0-1.651-3.58c-.267-.563-.721-1.067-1.1-1.176 1.29-.222 2.282-1.181 2.282-3.061 0-1.824-1.04-3.13-4.266-3.13h-4.079v10.946h3.121v-4.331c.613 0 .864.14 1.289 1.265l1.147 3.066h3.257zm-4.908-8.635c.88 0 1.308.253 1.308 1.035 0 .735-.329 1.19-1.292 1.19h-.8v-2.226h.784zM77.61 153.818h-3.002v10.946H80.5l.987-2.476H77.61zM91.007 159.092c0-2.227-.551-3.729-1.791-4.594-.884-.611-1.86-.68-2.617-.68h-4.021v10.945h4.134c1.479 0 2.362-.487 3.053-1.321.992-1.175 1.242-2.65 1.242-4.35zm-3.101-.093c0 3.029-.628 3.423-1.417 3.423h-1.094v-6.292h1.018c.851 0 1.493.33 1.493 2.869zM104.733 163.837l-1.211-1.916c-.615.547-1.182.719-1.892.719-.581 0-1.037-.264-1.399-.689-.457-.533-.532-1.397-.532-3.2 0-1.29.171-1.854.704-2.403.288-.3.743-.426 1.228-.426.603 0 1.149.209 1.64.585l1.193-2.072c-.504-.485-1.684-.802-2.801-.802-1.919 0-3.508.768-4.437 2.481-.535.989-.758 2.02-.758 3.388 0 1.554.393 2.984 1.259 3.941 1.01 1.098 2.237 1.508 3.59 1.508 1.603-.001 2.723-.473 3.416-1.114zM114.616 153.818h-2.968v7.19c0 1.066-.283 1.631-1.289 1.631-.989 0-1.306-.673-1.306-1.678v-7.144h-2.984v7.443c0 1.462.127 1.726.534 2.32.663.896 2.01 1.368 3.741 1.368 2.17 0 3.549-.85 4.005-1.757.238-.444.267-.863.267-1.807zM125 157.227c0-2.496-1.638-3.408-4.425-3.408h-3.873v10.945h2.967v-3.895h1.034c3.587 0 4.297-2.026 4.297-3.642zm-4.204-1.097c.675 0 1.133.17 1.133 1.081 0 1.192-.409 1.431-1.29 1.431h-.97v-2.512zM8.349 156.378l.87-2.316H.992v10.686h3.383v-3.859h2.351l.919-2.335h-3.27v-2.176zM10.26 154.062l-.009 10.686h3.341v-10.686zM26.069 154.078 22.22 164.77h3.232l.416-1.445h3.769l.437 1.445h3.324l-3.854-10.691h-3.475zm1.685 2.75-1.29 4.45h2.622zM23.261 156.378l.869-2.316h-8.225v10.686h3.379v-3.859h2.353l.918-2.335h-3.271v-2.176zM68.984 133.965c-3.539 0-5.457 2.393-6.748 5.682-.236.597-1.085 3.19-1.337 3.76-.857 1.953-2.048 3.186-4.219 3.186a5.076 5.076 0 0 1-5.081-5.07c0-2.797 2.277-5.066 5.081-5.066 1.754 0 3.099.823 4.021 1.964.407-.798.838-1.573 1.376-2.181-1.253-1.29-3.075-2.273-5.511-2.273-4.182 0-7.467 3.382-7.467 7.557 0 4.175 3.394 7.558 7.58 7.558 3.537 0 5.457-2.388 6.75-5.678.235-.599 1.083-3.194 1.335-3.765.861-1.954 2.046-3.182 4.219-3.182 2.808 0 5.082 2.27 5.082 5.066a5.074 5.074 0 0 1-5.082 5.07c-1.807 0-3.167-.891-4.021-1.978-.406.803-.84 1.611-1.379 2.217a7.601 7.601 0 0 0 5.399 2.248c4.187 0 7.582-3.383 7.582-7.558s-3.393-7.557-7.58-7.557z" style="stroke-width:.441869" transform="matrix(1.60368 0 0 1.60368 -13.833 -11.159)"/><path fill="#a38054" d="M79.29 147.468c.402-.213 1.734-1.518 3.12-2.978.988-1.011 1.125-1.119 1.768-1.933 1.184-1.497 1.758-3.029 1.758-4.527 0-2.604-1.833-4.714-4.495-4.714-1.948 0-3.725.675-5.545 2.248l1.215 1.394c1.517-1.062 2.49-1.513 3.556-1.513 1.519 0 2.804.938 2.804 2.638 0 1.584-1.074 3.604-3.563 6.345a29.553 29.553 0 0 1-3.825 3.548v1.347h9.512l1.2-1.858c-.001-.001-7.343-.022-7.505.003zM41.597 147.468c.401-.213 1.732-1.518 3.121-2.978.988-1.011 1.125-1.119 1.766-1.933 1.181-1.497 1.759-3.029 1.759-4.527 0-2.604-1.835-4.714-4.497-4.714-1.949 0-3.723.675-5.547 2.248l1.218 1.394c1.516-1.062 2.486-1.513 3.554-1.513 1.515 0 2.802.938 2.802 2.638 0 1.584-1.074 3.604-3.56 6.345a29.754 29.754 0 0 1-3.824 3.548v1.347h9.512l1.199-1.858c.001-.001-7.344-.022-7.503.003z" style="stroke-width:.441869" transform="matrix(1.60368 0 0 1.60368 -13.833 -11.159)"/><path fill="#ed1c2e" d="M122.416 174.771a37.915 37.915 0 0 0-.079 1.818v5.48s-9.168-9.516-9.295-9.826h-4.062v.146c1.473.771 1.351 2.45 1.351 3.967l-.099 11.116c-1.741-1.663-2.515-4.558-3.665-7.323-1.228-3.046-2.732-7.905-2.732-7.905H99.16v.146c1.109.351.908 1.395.597 2.263 0 0-1.309 3.876-2.302 6.283-1.938 4.626-2.753 6.433-4.1 7.106 2.074-.035 3.394-.454 4.439-3.159l1.285-3.195h5.269l1.587 3.833c.863 2.082 2.878 2.569 4.396 2.569l1.666-.036v-12.722c4 5.288 12 12.71 12 12.71v-16.709c0-.001-1.463.952-1.581 3.438zm-22.897 5.573 2.297-6.044 2.097 6.044z" style="stroke-width:.441869" transform="matrix(1.60368 0 0 1.60368 -13.833 -11.159)"/><path fill="#ed1c2e" d="M92.682 172.243h-6.693v.146c1.523.771 1.347 2.45 1.347 3.983v11.111c-.223-.156-.311-.224-.311-.224-1.744-1.657-2.613-4.346-3.763-7.111-1.229-3.046-2.735-7.905-2.735-7.905h-4.672v.146c1.107.351.911 1.395.592 2.263 0 0-1.305 3.876-2.297 6.283-1.235 2.942-2.105 4.932-2.765 5.854l.024-12.923c0-1.58.117-4.859.117-4.859h-5.308v.155s2.377.398 2.377 4.704v18.373c0 3.801-.761 5.267-4.001 7.728 5.354-1.165 6.814-3.424 6.814-6.977v-4.896c1.112 0 2.279-1.154 3.078-3.212l1.286-3.195h5.268l1.589 3.833c.962 2.124 2.837 2.569 4.395 2.569l3.002-.036v-6.76s.636.16 1.308.16c3.289.119 6.102-1.74 6.102-5.336 0-2.175-1.663-3.874-4.754-3.874zm-16.474 8.101 2.3-6.044 2.098 6.044zm15.167.006c-1.341 0-1.349-.124-1.349-.124v-6.599s1.031.041 1.588.041c1.82 0 2.851 1.145 2.851 3.278 0 2.171-1.342 3.404-3.09 3.404z" style="stroke-width:.441869" transform="matrix(1.60368 0 0 1.60368 -13.833 -11.159)"/><path fill="#00529c" d="m7.237 179.672 8.04-10.629h-4.832v.159c2.061.99.317 3.005-.791 4.466l-4.836 6.123v-10.748H0v.155c1.523.791 2.011 3.045 2.011 7.545v14.268h2.807v-10.785c1.043 1.455 8.036 11.276 10.25 13.789 3.337 3.785 5.837 3.859 8.212 3.859-7.398-4.43-8.859-8.661-16.043-18.202z" style="stroke-width:.441869" transform="matrix(1.60368 0 0 1.60368 -13.833 -11.159)"/><path fill="#00529c" d="M19.436 171.81c-4.752 0-8.078 2.842-8.078 8.141 0 6.108 4.633 8.377 7.882 8.377 4.041 0 7.846-2.289 7.846-8.377-.001-5.609-4.287-8.141-7.65-8.141zm-.119 14.937c-2.514 0-4.912-2.332-4.912-6.956 0-3.596 1.83-6.595 4.874-6.595 2.497 0 4.833 2.367 4.833 7.185.001 3.558-1.863 6.366-4.795 6.366zM64.995 187.466c-1.944-1.698-2.893-4.595-4.04-7.317-1.231-3.046-2.734-7.905-2.734-7.905h-4.675v.146c1.11.351.91 1.395.593 2.263 0 0-1.309 3.876-2.297 6.283-.476 1.188-1.01 2.358-1.554 3.585-.613 1.388-1.262 2.051-2.761 2.051l-1.748.012h-2.267v-6.081h4.122v-1.498h-4.122v-5.299c3.327.161 5.034-.477 6.42 1.229h.079l.041-2.689H39.537v.151c1.534.797 1.353 2.444 1.353 3.978l-.084 11.094c-.128-.015-.772-.145-1.805-1.248-.45-.477-1.264-1.543-2.017-2.485-.853-1.067-.939-1.181-1.45-1.844-.757-.875-1.127-.975-1.127-.975 2.442-.637 3.757-2.704 3.757-4.797 0-2.175-1.664-3.874-4.754-3.874h-6.082v.151c1.525.797 1.348 2.444 1.348 3.978l-.097 11.681h2.73v-7.139c.44 0 .57.058 1.081.565l2.811 3.567c1.213 1.607 2.449 3.031 4.642 3.027l8.913-.033c2.169 0 2.908-1.808 2.908-1.808l1.92-4.547h5.113l1.624 3.765c1.345 3.279 5.465 2.528 5.465 2.528s-.515-.276-.791-.515zm-33.686-7.717v-6.045h1.545c1.545 0 2.734 1.108 2.734 2.85 0 1.895-1.466 3.331-2.973 3.331-1.003 0-1.306-.136-1.306-.136zm22.712.595 2.178-6.044 2.1 6.044z" style="stroke-width:.441869" transform="matrix(1.60368 0 0 1.60368 -13.833 -11.159)"/><path fill="#fff" d="M43.482 48.816c-3.581-11.819 2.483-18.918 2.483-18.918-6.614-7.422-17.94-11.446-17.94-11.446C37.492 11.146 49.37 6.807 62.266 6.807c30.938 0 56.016 25.008 56.016 55.864 0 30.855-25.078 55.871-56.016 55.871-30.937 0-56.015-25.016-56.015-55.871a55.55 55.55 0 0 1 4.701-22.433s14.989-4.091 32.53 8.578z" style="stroke-width:.441869" transform="matrix(1.60368 0 0 1.60368 -13.833 -11.159)"/><path fill="#ed1c2e" d="M71.761 87.407c-11.573 19.468-35.75 31.414-35.75 31.414a62.38 62.38 0 0 0 26.603 5.854c8.944-.017 17.46-1.903 25.155-5.3.001 0-13.693-13.823-16.008-31.968z" style="stroke-width:.441869" transform="matrix(1.60368 0 0 1.60368 -13.833 -11.159)"/><path fill="#f9cf00" d="M22.793 14.199a7.007 7.007 0 0 1-1.316 1.536s4.453.469 8.151 2.774A54.65 54.65 0 0 1 62.363 7.633c4-.014 7.896.41 11.656 1.214L69.44.381A63.894 63.894 0 0 0 62.393 0c-15.041.03-28.828 5.35-39.6 14.199Z" style="stroke-width:.441869" transform="matrix(1.60368 0 0 1.60368 -13.833 -11.159)"/><path fill="#ed1c2e" d="M87.77 119.375c17.825-7.866 31.266-23.807 35.676-43.165L114 81.106c-5.311 14.506-16.602 26.143-30.898 31.938z" style="stroke-width:.441869" transform="matrix(1.60368 0 0 1.60368 -13.833 -11.159)"/><path fill="#ed1c2e" d="M74.019 8.848c24.704 5.285 43.249 27.167 43.293 53.398A54.486 54.486 0 0 1 114 81.107l9.445-4.896A62.02 62.02 0 0 0 125 62.232c-.056-32.048-24.357-58.41-55.56-61.85Z" style="stroke-width:.441869" transform="matrix(1.60368 0 0 1.60368 -13.833 -11.159)"/><path fill="#009d57" d="M2.72 44.22A62.415 62.415 0 0 0 0 62.444a62.227 62.227 0 0 0 3.125 19.417c5.407 16.364 17.42 29.729 32.886 36.96 5.039-2.848 7.257-5.219 7.257-5.219-15.065-5.614-26.995-17.638-32.442-32.759a54.491 54.491 0 0 1-3.218-18.407c-.01-7.552 1.507-14.754 4.278-21.304 0 0-2.948.007-8.296 1.42-.184.541-.516 1.09-.87 1.668z" style="stroke-width:.441869" transform="matrix(1.60368 0 0 1.60368 -13.833 -11.159)"/><path fill="#00529c" d="M62.802 22.279c-10.496.014-18.985 8.519-18.971 18.977.019 10.474 8.54 18.941 19.034 18.926 10.494-.021 18.986-8.519 18.966-18.984-.019-10.466-8.538-18.934-19.029-18.919Z" style="stroke-width:.441869" transform="matrix(1.60368 0 0 1.60368 -13.833 -11.159)"/><path fill="#009d57" d="m47.787 55.952-.063.709c-.048.864-.073 1.67-.073 2.387 0 9.741 3.159 18.896 9.14 26.472 0 0 .104.131.113.131l.362.468.065-.513.022-.256c.08-1.053.12-2.02.12-3.125 0-9.536-3.18-18.443-9.191-25.732z" style="stroke-width:.441869" transform="matrix(1.60368 0 0 1.60368 -13.833 -11.159)"/><path fill="#f9cf00" d="M47.747 111.509a58.162 58.162 0 0 0 12.552-18.576c3.06-7.2 4.609-14.856 4.609-22.738 0-3.154-.25-6.272-.74-9.339 0 0 10.242.329 15.863-10.063l2.443-.974a78.018 78.018 0 0 1-6.115 26.934 78.538 78.538 0 0 1-16.917 25.023 79.124 79.124 0 0 1-12.104 9.9l-3.966 3.88z" style="stroke-width:.441869" transform="matrix(1.60368 0 0 1.60368 -13.833 -11.159)"/><path fill="#f9cf00" d="M72.764 60.563c-2.668 0-4.838-2.152-4.842-4.816a4.82 4.82 0 0 1 4.822-4.822 4.82 4.82 0 0 1 4.838 4.808c.009 2.663-2.152 4.824-4.818 4.83z" style="stroke-width:.441869" transform="matrix(1.60368 0 0 1.60368 -13.833 -11.159)"/><path fill="#a38054" d="M89.347 118.411a58.428 58.428 0 0 1-12.551-18.563 57.969 57.969 0 0 1-3.708-12.528 82.133 82.133 0 0 0 5.244-10.283c4.267-10.055 6.426-20.742 6.426-31.756 0-11.007-2.159-21.693-6.426-31.748A81.981 81.981 0 0 0 71.45.63S70.237.425 67.691.212a78.864 78.864 0 0 1 8.006 14.433 77.456 77.456 0 0 1 4.409 13.899c-3.89-5.241-10.133-8.644-17.159-8.644-6.389 0-12.131 2.818-16.049 7.267a58.253 58.253 0 0 0-16.283-10.311 55.397 55.397 0 0 0-7.81-2.665s-1.107 1.076-2.155 2.313c3.235.716 5.768 1.675 8.85 2.979a55.283 55.283 0 0 1 15.648 9.959 21.152 21.152 0 0 0-3.562 11.769c0 2.196.333 4.31.957 6.309a43.27 43.27 0 0 0-9.01-5.146c-5.349-2.261-11.029-3.403-16.882-3.403-4.29 0-8.261.57-12.303 1.785l-.034.037c-.553.688-1.618 3.483-1.618 3.483l.282-.103a40.828 40.828 0 0 1 13.672-2.342c10.821 0 20.994 4.2 28.64 11.827a47.088 47.088 0 0 1 1.486 1.558 44.053 44.053 0 0 0-.167 3.829 43.762 43.762 0 0 0 10.243 28.191c-1.096 8.892-5.105 17.12-11.562 23.559a41.239 41.239 0 0 1-10.344 7.507c.866.462 2.288 1.069 2.853 1.312l.268.117c2.486-1.323 9.483-6.029 9.483-6.029h-.006a82.057 82.057 0 0 0 13.258-10.737 82.076 82.076 0 0 0 10.067-12.171 61.07 61.07 0 0 0 15.851 29.025s1.59-.649 2.79-1.252c-.052-.047-.112-.106-.163-.156zm-26.4-95.657c10.198 0 18.503 8.285 18.503 18.458 0 3.696-1.105 7.15-2.991 10.042a5.67 5.67 0 0 0-.541-.6 7.246 7.246 0 0 0-5.162-2.116 7.247 7.247 0 0 0-5.139 2.144 7.196 7.196 0 0 0-2.123 5.146 7.193 7.193 0 0 0 .924 3.505c-.36.066-.725.125-1.094.176a57.618 57.618 0 0 0-3.534-11.564A58.213 58.213 0 0 0 49.234 29.37c-.084-.081-.168-.168-.252-.249 3.393-3.893 8.393-6.367 13.965-6.367zm14.26 33.037a4.37 4.37 0 0 1-1.286 3.117 4.355 4.355 0 0 1-3.122 1.302 4.365 4.365 0 0 1-3.131-1.279 4.359 4.359 0 0 1-1.303-3.111 4.367 4.367 0 0 1 1.283-3.125 4.4 4.4 0 0 1 3.117-1.302c1.186 0 2.295.453 3.139 1.281a4.422 4.422 0 0 1 1.303 3.117zm-20.596 9.602a41 41 0 0 0-2.353-4.713 21.328 21.328 0 0 0 8.058 1.823c.367 2.59.555 5.211.555 7.853a55.17 55.17 0 0 1-3.515 19.468c.442-2.488.662-5.028.662-7.597a42.9 42.9 0 0 0-3.407-16.834zM44.45 41.212c0-3.585 1.032-6.938 2.813-9.77a55.436 55.436 0 0 1 15.176 28.214c-9.968-.272-17.989-8.447-17.989-18.444Zm6.029 31.983a42.425 42.425 0 0 1-2.347-16.394c5.848 7.172 9.026 16.058 9.026 25.425 0 .989-.036 1.969-.107 2.942a42.111 42.111 0 0 1-6.572-11.973zm8.301 27.753a80.45 80.45 0 0 1-4.566 4.214 58.434 58.434 0 0 0 6.916-12.06c3.053-7.209 4.601-14.857 4.601-22.748 0-2.678-.176-5.334-.536-7.955a21.91 21.91 0 0 0 3.415-.644 7.221 7.221 0 0 0 4.197 1.318 7.23 7.23 0 0 0 5.144-2.153 7.184 7.184 0 0 0 2.116-5.144 7.09 7.09 0 0 0-.182-1.596 21.394 21.394 0 0 0 1.775-2.701 77.841 77.841 0 0 1-5.963 24.445c-3.976 9.376-9.67 17.792-16.917 25.024z" style="stroke-width:.441869" transform="matrix(1.60368 0 0 1.60368 -13.833 -11.159)"/><path fill="#003473" d="m115.979 103.997-.286.516-2.575-1.431.448-.804 2.297.648.001-.009-1.766-1.596.448-.796 2.572 1.426-.288.515-2.153-1.196-.002.009 1.879 1.687-.304.542-2.417-.714-.005.009zM114.829 105.823l-.32.482-2.013-1.354-.465.688-.436-.288 1.257-1.859.427.292-.463.694zM111.2 110.494l-.439.503-1.511-2.745.479-.55 2.924 1.135-.454.514-.586-.256-.729.846zm-.593-1.017.505-.581-1.12-.482-.01.011zM109.78 110.206l-.763.772.881.871-.36.367-2.101-2.062 1.239-1.255.371.367-.875.882.474.47.763-.776zM109.095 112.627l-.464.43-2.004-2.154.464-.426zM107.449 112.466l-.829.708.808.939-.394.334-1.913-2.232 1.34-1.146.339.398-.946.804.43.504.828-.705zM102.512 115.335c-.23-.346-.045-.561.083-.646.25-.168.489-.081.674.199.188.288.08.53-.092.643-.184.126-.421.169-.665-.196zm.268 1.355c.299.354.767.388 1.189.103.448-.298.701-.9.071-1.837-.227-.339-.846-1.234-1.705-.657-.492.325-.665.841-.266 1.431.27.406.78.569 1.258.256.169-.114.332-.283.338-.521l.008.003c.339.51.247.808.043.945-.149.101-.303.099-.446-.05h-.002zM100.599 116.501c-.212-.357-.015-.561.119-.639.261-.152.49-.049.661.237.174.295.049.535-.129.638-.192.111-.43.142-.651-.236zm.188 1.368c.275.37.739.436 1.18.174.466-.268.754-.861.18-1.833-.205-.349-.772-1.276-1.667-.756-.504.298-.712.805-.35 1.417.247.421.748.613 1.244.323.173-.099.348-.257.366-.497l.009.002c.307.53.198.824-.012.951-.157.092-.314.082-.444-.073l-.002-.005zM98.525 117.596c-.19-.366.021-.559.156-.625.273-.14.497-.021.646.276.154.304.019.531-.167.628-.196.101-.434.114-.635-.279zm.104 1.379c.256.391.713.477 1.164.253.485-.249.809-.822.299-1.822-.187-.367-.694-1.325-1.618-.859-.523.267-.759.757-.439 1.393.22.433.709.658 1.221.397.182-.087.365-.235.4-.472l.011.002c.27.548.143.837-.073.946-.161.082-.319.064-.439-.098l-.001-.008zM95.814 118.31l.076-.03c.523-.229.55-.549.478-.754l.442-.188 1.152 2.667-.541.234-.794-1.842-.653.283zM93.123 120.249c.188.69-.189 1.289-.788 1.451l.001-.004c-.613.17-1.231-.158-1.418-.846-.19-.691.175-1.279.789-1.447.597-.164 1.227.159 1.416.846zm.442-.12c-.255-.944-1.14-1.291-1.953-1.068-.815.22-1.397.964-1.14 1.905.259.945 1.143 1.301 1.957 1.082.814-.224 1.394-.975 1.136-1.919zm-1.06.528c.035.192-.086.32-.286.376-.25.068-.489-.113-.57-.407-.085-.302.019-.54.28-.614.176-.048.355-.012.443.163l.347-.095c-.172-.385-.517-.51-.884-.411-.521.144-.737.59-.604 1.082.13.48.568.765 1.08.623.354-.094.606-.397.561-.813z" style="stroke-width:.441869" transform="matrix(1.60368 0 0 1.60368 -13.833 -11.159)"/></g></svg>