<svg xmlns="http://www.w3.org/2000/svg" width="250.72714" height="300" viewBox="0 0 66.338222 79.375002"><defs><clipPath id="E" clipPathUnits="userSpaceOnUse"><path d="M68.049 785.562c-.05-.003-.098-.01-.147-.012-2.082-.206-3.75-1.871-4.879-4.261a15.826 15.826 0 0 1-.964-2.686c.251.217.55.429.892.624a7.524 7.524 0 0 0 2.934.932c2.607.256 7.036-.404 8.726-5.165 1.787-5.032-2.026-14.841-5.443-21.948 1.659-2.883 2.676-4.711 4.556-7.78 0 0 8.129 12.394 8.221 12.578 2.581 5.197 4.019 11.571 3.634 16.678-.614 8.19-5.729 10.621-5.795 10.682a4.145 4.145 0 0 1-.413-.211c-1.81-1.085-1.857-2.816-8.146.195-.673.324-1.57.402-2.33.402-.313 0-.604-.012-.846-.028"/></clipPath><clipPath id="a" clipPathUnits="userSpaceOnUse"><path d="M-32768 32767h65535v-65535h-65535Z"/></clipPath><clipPath id="H" clipPathUnits="userSpaceOnUse"><path d="M51.024 713.867h168.655v76.999H51.024Z"/></clipPath><clipPath id="I" clipPathUnits="userSpaceOnUse"><path d="M68.049 785.562c-.05-.003-.098-.01-.147-.012-2.082-.206-3.75-1.871-4.879-4.261a15.826 15.826 0 0 1-.964-2.686c.251.217.55.429.892.624a7.524 7.524 0 0 0 2.934.932c2.607.256 7.036-.404 8.726-5.165 1.787-5.032-2.026-14.841-5.443-21.948 1.659-2.883 3.088-5.827 4.713-8.756 0 0 8.717 15.109 8.807 15.294 2.583 5.198 3.692 11.283 3.271 15.033-.43 3.811-1.175 5.175-2.111 6.58-.327.492-3.998 3.946-4.064 4.007a4.145 4.145 0 0 1-.413-.211c-1.81-1.085-1.857-2.816-8.146.195-.673.324-1.57.402-2.33.402-.313 0-.604-.012-.846-.028"/></clipPath><clipPath id="c" clipPathUnits="userSpaceOnUse"><path d="M-32768 32767h65535v-65535h-65535Z"/></clipPath><clipPath id="L" clipPathUnits="userSpaceOnUse"><path d="M51.024 713.867h168.655v76.999H51.024Z"/></clipPath><clipPath id="M" clipPathUnits="userSpaceOnUse"><path d="M62.073 783.008h21.759v-60.886H62.073Z"/></clipPath><clipPath id="N" clipPathUnits="userSpaceOnUse"><path d="M72.002 783.008c-2.681-.028-4.642-.901-4.706-1.524 12.524-.41 13.529-9.172 1.286-31.313-4.642-8.395-6.486-16.113-6.509-21.298v-.195c.014-3.269.767-5.496 2.001-6.197.423-.24.876-.353 1.324-.36h.077c1.937.027 3.73 2.061 2.473 4.66-1.564 3.232-.243 9.899 3.758 17.182 4 7.286 17.983 27.314 9.373 35.451-2.863 2.706-6.163 3.567-8.816 3.594z"/></clipPath><clipPath id="e" clipPathUnits="userSpaceOnUse"><path d="M-32768 32767h65535v-65535h-65535Z"/></clipPath><clipPath id="Q" clipPathUnits="userSpaceOnUse"><path d="M63.906 782.257h16.23v-58.665h-16.23Z"/></clipPath><clipPath id="R" clipPathUnits="userSpaceOnUse"><path d="M63.906 723.592h16.23v58.664h-16.23z"/></clipPath><clipPath id="S" clipPathUnits="userSpaceOnUse"><path d="M58.788 743.773h11.573v-25.177H58.788Z"/></clipPath><clipPath id="T" clipPathUnits="userSpaceOnUse"><path d="M58.788 727.017c0-4.306 1.997-6.824 3.589-7.846.509-.327 1.368-.556 2.279-.575h.241c.372.008.748.051 1.109.139 2.454.598 4.312 3.06 4.355 7.641v.33c-.017 1.83-.316 3.986-.969 6.481-.218.835-1.96 4.613-2.306 5.282-.711 1.37-2.347 4.594-2.68 5.304-2.845-6.431-5.561-14.478-5.618-16.756"/></clipPath><clipPath id="g" clipPathUnits="userSpaceOnUse"><path d="M-32768 32767h65535v-65535h-65535Z"/></clipPath><clipPath id="W" clipPathUnits="userSpaceOnUse"><path d="M62.059 786.099h23.748v-41.538H62.059Z"/></clipPath><clipPath id="X" clipPathUnits="userSpaceOnUse"><path d="M63.023 781.289a16 16 0 0 1-.964-2.686c.249.217.551.429.893.624a7.514 7.514 0 0 0 2.931.932c2.609.256 7.036-.404 8.729-5.165 1.786-5.032-2.027-14.841-5.444-21.948a569.108 569.108 0 0 0 4.816-8.485s8.614 14.838 8.704 15.023c2.583 5.197 4.999 14.938.981 21.47-1.428 2.321-3.477 4.062-3.545 4.123-.268-.04-.612-.103-.753-.184-1.81-1.085-1.181-1.966-7.59.78a4.115 4.115 0 0 1-1.636.325c-2.96 0-6.173-2.801-7.122-4.809"/></clipPath><clipPath id="i" clipPathUnits="userSpaceOnUse"><path d="M-32768 32767h65535v-65535h-65535Z"/></clipPath><clipPath id="aa" clipPathUnits="userSpaceOnUse"><path d="M59.446 785.642h26.551v-67.035H59.446Z"/></clipPath><clipPath id="ab" clipPathUnits="userSpaceOnUse"><path d="M70.157 785.642c-2.085-.015-4.42-1.718-5.289-2.693-1.01-1.135-2.554-3.386-2.809-4.346.834.721 2.244 1.401 3.824 1.556 2.609.256 7.036-.404 8.729-5.165 1.786-5.032-2.027-14.841-5.444-21.948-.08-.167-.162-.335-.243-.5-.343-.609-4.377-8.367-4.519-8.773-2.492-7.188-4.903-14.553-4.96-16.83 0-3.899 1.382-8.275 5.258-8.336h.164c.359.005.737.047 1.138.128 3.688.753 4.605 6.778 4.051 9.882 0 0-1.19 5.044-1.246 5.149 0 0 7.322 14.682 7.85 15.612.644 1.139 5.937 10.021 6.027 10.206 2.583 5.197 3.518 11.269 3.27 15.033-.087 1.325-1.422 5.347-2.289 6.437-1.699 2.131-4.157 4.02-4.298 3.939-1.81-1.085-1.525-1.98-8.056.456-.349.13-.716.19-1.092.193z"/></clipPath><clipPath id="k" clipPathUnits="userSpaceOnUse"><path d="M-32768 32767h65535v-65535h-65535Z"/></clipPath><clipPath id="ae" clipPathUnits="userSpaceOnUse"><path d="M65.815 780.863a15.018 15.018 0 0 1-2.243-.505l-.389-.596-.232-.535a7.524 7.524 0 0 0 2.934.932c2.607.256 7.036-.404 8.726-5.165 1.787-5.032-2.026-14.841-5.443-21.948-.074-.155-.15-.308-.224-.462.55-.462.983-.813.983-.813.103.17.166.31.258.485 3.518 7.332 6.962 17.716 5.094 22.973-.727 2.043-1.983 3.573-3.734 4.545-.11.06-.775.381-1.006.469a7.264 7.264 0 0 1-.337.128c-.219.076-.9.262-1.012.287a10.662 10.662 0 0 1-2.328.254c-.353 0-.707-.015-1.047-.049"/></clipPath><clipPath id="m" clipPathUnits="userSpaceOnUse"><path d="M-32768 32767h65535v-65535h-65535Z"/></clipPath><clipPath id="ah" clipPathUnits="userSpaceOnUse"><path d="M51.024 713.867h168.655v76.999H51.024Z"/></clipPath><clipPath id="aj" clipPathUnits="userSpaceOnUse"><path d="M51.024 713.867h168.655v76.999H51.024Z"/></clipPath><clipPath id="ak" clipPathUnits="userSpaceOnUse"><path d="M69.079 789.485c-.142-.01-6.595-.377-7.442-.624-1.326-.516-1.657-1.391-2.205-2.106-.322-.421-.546-.55-.841-.618.202.043.442.099.713.168.742.185 1.371.461 2.106.786.674.297 1.439.633 2.421 1.034.543.222 1.695.643 2.301.807.617.165 2.153.432 2.301.453.204.029.615.081.814.109a3.041 3.041 0 0 1-.168-.009"/></clipPath><clipPath id="o" clipPathUnits="userSpaceOnUse"><path d="M-32768 32767h65535v-65535h-65535Z"/></clipPath><clipPath id="an" clipPathUnits="userSpaceOnUse"><path d="M51.024 713.867h168.655v76.999H51.024Z"/></clipPath><clipPath id="ao" clipPathUnits="userSpaceOnUse"><path d="m79.322 784.955.082.05c1.033.68 3.049 1.039 4.847-1.672-2.641 4.472-5.102 4.061-7.655 3.648-1.667-.27-3.373-.539-5.19.55 2.559-1.649 5.469-4.094 7.916-2.576"/></clipPath><clipPath id="q" clipPathUnits="userSpaceOnUse"><path d="M-32768 32767h65535v-65535h-65535Z"/></clipPath><clipPath id="ar" clipPathUnits="userSpaceOnUse"><path d="M51.024 713.867h168.655v76.999H51.024Z"/></clipPath><clipPath id="as" clipPathUnits="userSpaceOnUse"><path d="M71.136 790.405c-2.105-.032-5.43-.934-7.742-1.161-.736-.071-1.304-.207-1.757-.383 1.726.346 1.9.004 6.828.562.023.004.656.065.814.075 1.126.072 2.232-.004 3.147-.493 1.149-.617 2.234-.875 3.274-.986.781-.085 1.536-.085 2.276-.083.487 0 .966 0 1.441-.022-1.959.45-5.325 1.725-6.967 2.329-.292.106-.661.155-1.092.162z"/></clipPath><clipPath id="s" clipPathUnits="userSpaceOnUse"><path d="M-32768 32767h65535v-65535h-65535Z"/></clipPath><clipPath id="av" clipPathUnits="userSpaceOnUse"><path d="M51.024 713.867h168.655v76.999H51.024Z"/></clipPath><clipPath id="aw" clipPathUnits="userSpaceOnUse"><path d="M56.257 783.302c-3.328-4.549-4.151-11.925-2.821-15.84 1.699-5.005 2.459-7.48 6.656-14.176.386-.615-2.175 9.621-2.735 12.111-.512 2.278-2.066 11.586 1.22 18.923.305.681.653 1.431 1.045 2.071-1.319-.692-2.439-1.825-3.365-3.089"/></clipPath><clipPath id="u" clipPathUnits="userSpaceOnUse"><path d="M-32768 32767h65535v-65535h-65535Z"/></clipPath><clipPath id="az" clipPathUnits="userSpaceOnUse"><path d="M51.024 713.867h168.655v76.999H51.024Z"/></clipPath><clipPath id="aA" clipPathUnits="userSpaceOnUse"><path d="M63.069 758.457c-.061.293-.099.457-.099.457s.033-.162.099-.457m-.224-12.842c.165-.284.3-.507.442-.761.066-.118.139-.241.206-.358 5.634-9.849 14.466-17.034 9.503-24.81-.443-.695-.896-1.408-1.672-2.101.897.739 1.599.651 2.226.561.66-.094 1.24-.189 1.884.686.182.247.425.646.633 1.162.112.271.212.57.313.947 0 0 2.708-3.655 5.354-1 .891 2.966 1.246 7.434-2.709 12.289-4.5 5.524-7.305 6.082-10.94 12.308-2.875 4.922-4.598 12.058-5.016 13.919.422-2.013 1.944-10.105-.224-12.842"/></clipPath><clipPath id="w" clipPathUnits="userSpaceOnUse"><path d="M-32768 32767h65535v-65535h-65535Z"/></clipPath><clipPath id="aD" clipPathUnits="userSpaceOnUse"><path d="M57.581 781.04c-.809-3.564-1.317-8.785-.506-14.116.353-2.331 2.079-7.42 2.47-9.873-.993 7.831-4.718 22.816 7.216 28.499-2.842-.705-8.428-4.894-9.18-4.51"/></clipPath><clipPath id="y" clipPathUnits="userSpaceOnUse"><path d="M-32768 32767h65535v-65535h-65535Z"/></clipPath><clipPath id="aG" clipPathUnits="userSpaceOnUse"><path d="M71.136 790.405c-2.105-.032-5.43-.934-7.742-1.161-.736-.071-1.304-.207-1.757-.383-1.326-.516-1.657-1.391-2.205-2.106-.322-.421-.546-.55-.841-.618-.007-.001-.014-.001-.019-.004-2.245-.805-7.548-7.349-6.403-16.376a14.41 14.41 0 0 1 .508-2.594c2.191-8.665 9.532-20.286 11.334-23.584-1.328-3.056-4.162-9.331-5.066-15.24-.038-.201-.256-1.559-.27-2.696-.122-3.008.442-5.756 2.186-7.73.01-.013.341-.369.356-.384.889-.877 1.941-1.435 2.997-1.771h.001c1.496-.642 2.636-.283 3.733-.096a7.873 7.873 0 0 1 1.53-.707c3.148-1.088 6.669-.215 8.32.707 2.213.719 3.222 2.02 3.854 4.032.637 1.896 1.612 5.768-.594 11.496-.994 2.475-2.986 6.347-6.06 11.974l-.019.034c2.462 4.661 9.058 16.192 10.233 19.564.063.178.119.35.174.522 1.993 5.102 3.296 11.853-.117 18.132-.17.329-.8 1.508-1.018 1.917l-.074.134c-2.754 5.058-2.847 4.099-4.568 4.403-.062.009-.128.028-.192.044-1.959.45-5.325 1.725-6.967 2.329-.292.106-.661.155-1.092.162zm2.15-44.426-.299.506c-3.792 6.816-7.875 12.754-10.094 18.341-.491 1.51-.875 2.997-1.114 4.42-.837 4.076-.488 6.472 1.07 9.768 1.497 3.175 6.024 7.136 8.557 5.924 2.785-1.334 4.317-1.649 5.328-1.526.971.12 1.453.649 2.098 1.177.134.117.462.344.49.366 1.513-1.165 2.556-2.525 3.456-3.885 7.632-11.529-4.968-29.179-9.054-35.804-.275.46-.436.712-.438.713m-9.382-26.539c-.571.075-1.142.3-1.691.675a4.34 4.34 0 0 0-1.628 2.191c-.887 2.666-.701 7.963 4.054 19.958.497-1.076.964-2.091 1.166-2.507 2.752-5.569 3.413-10.676 3.417-13.728-.297-3.837-2.148-6.166-4.235-6.557a4.283 4.283 0 0 0-1.083-.032"/></clipPath><clipPath id="A" clipPathUnits="userSpaceOnUse"><path d="M-32768 32767h65535v-65535h-65535Z"/></clipPath><clipPath id="aJ" clipPathUnits="userSpaceOnUse"><path d="M71.242 790.406c-2.098-.002-5.498-.931-7.848-1.162-.736-.071-1.304-.207-1.757-.383-1.326-.516-1.657-1.391-2.205-2.106-.322-.421-.546-.55-.841-.618-.007-.001-.014-.001-.019-.004-2.245-.805-7.548-7.349-6.403-16.376a14.41 14.41 0 0 1 .508-2.594c2.191-8.665 9.532-20.286 11.334-23.584-1.328-3.056-4.162-9.331-5.066-15.24-.038-.201-.256-1.559-.27-2.698-.122-3.006.442-5.754 2.186-7.728.01-.013.341-.369.356-.384.889-.877 1.941-1.435 2.997-1.771h.001c1.496-.642 2.636-.283 3.733-.096a7.873 7.873 0 0 1 1.53-.707c1.069-.369 2.18-.512 3.247-.506 2.075.015 3.984.605 5.073 1.213 2.213.719 3.222 2.02 3.854 4.032.637 1.896 1.612 5.768-.594 11.496-.994 2.475-2.986 6.347-6.06 11.974l-.019.034c2.462 4.661 9.058 16.192 10.233 19.564.063.178.119.35.174.522 1.993 5.102 3.296 11.853-.117 18.132-.17.327-.8 1.508-1.018 1.917l-.074.134c-2.754 5.058-2.847 4.099-4.568 4.403-.062.009-.128.028-.192.044-1.959.45-5.325 1.725-6.967 2.329-.312.114-.717.163-1.187.163zm2.044-44.427-.299.506c-3.792 6.816-7.875 12.754-10.094 18.341-.491 1.51-.875 2.997-1.114 4.42-.837 4.076-.488 6.472 1.07 9.768 1.497 3.175 6.024 7.136 8.557 5.924 2.785-1.334 4.317-1.649 5.328-1.526.971.12 1.453.649 2.098 1.177.134.117.462.344.49.366 1.513-1.165 2.556-2.525 3.456-3.885 7.632-11.529-4.968-29.179-9.054-35.804-.275.46-.436.712-.438.713m-9.382-26.539c-.571.075-1.142.3-1.691.675a4.34 4.34 0 0 0-1.628 2.191c-.887 2.666-.701 7.963 4.054 19.958.497-1.076.964-2.091 1.166-2.507 2.752-5.569 3.413-10.676 3.417-13.728-.297-3.837-2.148-6.166-4.235-6.557a4.283 4.283 0 0 0-1.083-.032"/></clipPath><clipPath id="C" clipPathUnits="userSpaceOnUse"><path d="M-32768 32767h65535v-65535h-65535Z"/></clipPath><clipPath id="aM" clipPathUnits="userSpaceOnUse"><path d="M51.024 713.867h168.655v76.999H51.024Z"/></clipPath><clipPath id="aN" clipPathUnits="userSpaceOnUse"><path d="M54.944 763.323H77.38v-40.878H54.944Z"/></clipPath><clipPath id="aT" clipPathUnits="userSpaceOnUse"><path d="M51.024 713.867h168.655v76.999H51.024Z"/></clipPath><clipPath id="aU" clipPathUnits="userSpaceOnUse"><path d="M69.24 744.066h12.812v-18.054H69.24Z"/></clipPath><linearGradient id="b" x1="0" x2="1" y1="0" y2="0" gradientTransform="scale(19.38826 -19.38826) rotate(-67.657 -27.148 -21.748)" gradientUnits="userSpaceOnUse" spreadMethod="pad"><stop offset="0" style="stop-opacity:1;stop-color:#fff"/><stop offset="0.57374322" style="stop-opacity:0;stop-color:#fff"/><stop offset="1" style="stop-opacity:0;stop-color:#fff"/></linearGradient><linearGradient id="G" x1="0" x2="1" y1="0" y2="0" gradientTransform="scale(19.38826 -19.38826) rotate(-67.657 -27.148 -21.748)" gradientUnits="userSpaceOnUse" spreadMethod="pad"><stop offset="0" style="stop-opacity:1;stop-color:#858380"/><stop offset="1" style="stop-opacity:1;stop-color:#a19f9c"/></linearGradient><linearGradient id="d" x1="0" x2="1" y1="0" y2="0" gradientTransform="scale(28.19952 -28.19952) rotate(69.268 21.502 -12.287)" gradientUnits="userSpaceOnUse" spreadMethod="pad"><stop offset="0" style="stop-opacity:1;stop-color:#fff"/><stop offset="0.57374322" style="stop-opacity:0;stop-color:#fff"/><stop offset="1" style="stop-opacity:0;stop-color:#fff"/></linearGradient><linearGradient id="K" x1="0" x2="1" y1="0" y2="0" gradientTransform="scale(28.19952 -28.19952) rotate(69.268 21.502 -12.287)" gradientUnits="userSpaceOnUse" spreadMethod="pad"><stop offset="0" style="stop-opacity:1;stop-color:#9d9b98"/><stop offset="1" style="stop-opacity:1;stop-color:#797775"/></linearGradient><linearGradient id="f" x1="0" x2="1" y1="0" y2="0" gradientTransform="scale(-58.1505 58.1505) rotate(-59.912 10.822 7.785)" gradientUnits="userSpaceOnUse" spreadMethod="pad"><stop offset="0" style="stop-opacity:.8;stop-color:#fff"/><stop offset="0.15984256" style="stop-opacity:.8;stop-color:#fff"/><stop offset="0.842522" style="stop-opacity:1;stop-color:#fff"/><stop offset="1" style="stop-opacity:1;stop-color:#fff"/></linearGradient><linearGradient id="P" x1="0" x2="1" y1="0" y2="0" gradientTransform="scale(-58.1505 58.1505) rotate(-59.912 10.822 7.785)" gradientUnits="userSpaceOnUse" spreadMethod="pad"><stop offset="0" style="stop-opacity:1;stop-color:#797775"/><stop offset="0.842522" style="stop-opacity:1;stop-color:#f2efea"/><stop offset="1" style="stop-opacity:1;stop-color:#f2efea"/></linearGradient><linearGradient id="h" x1="0" x2="1" y1="0" y2="0" gradientTransform="matrix(0 58.21427 58.21427 0 64.575 721.92)" gradientUnits="userSpaceOnUse" spreadMethod="pad"><stop offset="0" style="stop-opacity:1;stop-color:#fff"/><stop offset="0.01865536" style="stop-opacity:1;stop-color:#fff"/><stop offset="1" style="stop-opacity:.8;stop-color:#fff"/></linearGradient><linearGradient id="V" x1="0" x2="1" y1="0" y2="0" gradientTransform="matrix(0 58.21426 58.21426 0 64.575 721.92)" gradientUnits="userSpaceOnUse" spreadMethod="pad"><stop offset="0" style="stop-opacity:1;stop-color:#9d9b98"/><stop offset="1" style="stop-opacity:1;stop-color:#f2efea"/></linearGradient><linearGradient id="j" x1="0" x2="1" y1="0" y2="0" gradientTransform="scale(-44.86032 44.86032) rotate(70.218 -12.752 6.963)" gradientUnits="userSpaceOnUse" spreadMethod="pad"><stop offset="0" style="stop-opacity:1;stop-color:#fff"/><stop offset="0.01865536" style="stop-opacity:1;stop-color:#fff"/><stop offset="1" style="stop-opacity:.8;stop-color:#fff"/></linearGradient><linearGradient id="Z" x1="0" x2="1" y1="0" y2="0" gradientTransform="scale(-44.86033 44.86033) rotate(70.218 -12.752 6.963)" gradientUnits="userSpaceOnUse" spreadMethod="pad"><stop offset="0" style="stop-opacity:1;stop-color:#9d9b98"/><stop offset="1" style="stop-opacity:1;stop-color:#f2efea"/></linearGradient><linearGradient id="l" x1="0" x2="1" y1="0" y2="0" gradientTransform="scale(-68.17165 68.17165) rotate(70.218 -8.122 4.408)" gradientUnits="userSpaceOnUse" spreadMethod="pad"><stop offset="0" style="stop-opacity:1;stop-color:#fff"/><stop offset="0.01865536" style="stop-opacity:1;stop-color:#fff"/><stop offset="1" style="stop-opacity:0;stop-color:#fff"/></linearGradient><linearGradient id="ad" x1="0" x2="1" y1="0" y2="0" gradientTransform="scale(-68.17165 68.17165) rotate(70.218 -8.122 4.408)" gradientUnits="userSpaceOnUse" spreadMethod="pad"><stop offset="0" style="stop-opacity:1;stop-color:#44433e"/><stop offset="1" style="stop-opacity:1;stop-color:#f2efea"/></linearGradient><linearGradient id="n" x1="0" x2="1" y1="0" y2="0" gradientTransform="matrix(0 -28.636 -28.636 0 69.378 781.493)" gradientUnits="userSpaceOnUse" spreadMethod="pad"><stop offset="0" style="stop-opacity:.2;stop-color:#fff"/><stop offset="1" style="stop-opacity:.8;stop-color:#fff"/></linearGradient><linearGradient id="ag" x1="0" x2="1" y1="0" y2="0" gradientTransform="matrix(0 -28.636 -28.636 0 69.378 781.493)" gradientUnits="userSpaceOnUse" spreadMethod="pad"><stop offset="0" style="stop-opacity:1;stop-color:#f2efea"/><stop offset="1" style="stop-opacity:1;stop-color:#f2efea"/></linearGradient><linearGradient id="ai" x1="0" x2="1" y1="0" y2="0" gradientTransform="matrix(9.3658 6.06715 6.06715 -9.3658 60.415 782.828)" gradientUnits="userSpaceOnUse" spreadMethod="pad"><stop offset="0" style="stop-opacity:1;stop-color:#faf6f2"/><stop offset="1" style="stop-opacity:1;stop-color:#fffbf7"/></linearGradient><linearGradient id="p" x1="0" x2="1" y1="0" y2="0" gradientTransform="matrix(10.6555 0 0 -10.6555 58.59 787.817)" gradientUnits="userSpaceOnUse" spreadMethod="pad"><stop offset="0" style="stop-opacity:.8;stop-color:#fff"/><stop offset="0.09066936" style="stop-opacity:.8;stop-color:#fff"/><stop offset="1" style="stop-opacity:0;stop-color:#fff"/></linearGradient><linearGradient id="am" x1="0" x2="1" y1="0" y2="0" gradientTransform="matrix(10.6555 0 0 -10.6555 58.59 787.817)" gradientUnits="userSpaceOnUse" spreadMethod="pad"><stop offset="0" style="stop-opacity:1;stop-color:#b0aeab"/><stop offset="1" style="stop-opacity:1;stop-color:#faf6f2"/></linearGradient><linearGradient id="r" x1="0" x2="1" y1="0" y2="0" gradientTransform="scale(-16.59185 16.59185) rotate(28.482 -95.404 13.352)" gradientUnits="userSpaceOnUse" spreadMethod="pad"><stop offset="0" style="stop-opacity:.8;stop-color:#fff"/><stop offset="0.0477852" style="stop-opacity:.8;stop-color:#fff"/><stop offset="0.527027" style="stop-opacity:.60222782;stop-color:#fff"/><stop offset="0.53762916" style="stop-opacity:.60222782;stop-color:#fff"/><stop offset="1" style="stop-opacity:.4;stop-color:#fff"/></linearGradient><linearGradient id="aq" x1="0" x2="1" y1="0" y2="0" gradientTransform="scale(-16.59185 16.59185) rotate(28.482 -95.404 13.352)" gradientUnits="userSpaceOnUse" spreadMethod="pad"><stop offset="0" style="stop-opacity:1;stop-color:#fffbf7"/><stop offset="0.527027" style="stop-opacity:1;stop-color:#fffbf7"/><stop offset="1" style="stop-opacity:1;stop-color:#b4b2af"/></linearGradient><linearGradient id="t" x1="0" x2="1" y1="0" y2="0" gradientTransform="matrix(17.77977 0 0 -17.77977 61.637 789.16)" gradientUnits="userSpaceOnUse" spreadMethod="pad"><stop offset="0" style="stop-opacity:1;stop-color:#fff"/><stop offset="0.09066936" style="stop-opacity:1;stop-color:#fff"/><stop offset="1" style="stop-opacity:0;stop-color:#fff"/></linearGradient><linearGradient id="au" x1="0" x2="1" y1="0" y2="0" gradientTransform="matrix(17.77977 0 0 -17.77977 61.637 789.16)" gradientUnits="userSpaceOnUse" spreadMethod="pad"><stop offset="0" style="stop-opacity:1;stop-color:#ccc9c6"/><stop offset="1" style="stop-opacity:1;stop-color:#faf6f2"/></linearGradient><linearGradient id="v" x1="0" x2="1" y1="0" y2="0" gradientTransform="scale(-33.04783 33.04783) rotate(-86.698 11.73 12.826)" gradientUnits="userSpaceOnUse" spreadMethod="pad"><stop offset="0" style="stop-opacity:.8;stop-color:#fff"/><stop offset="0.09066936" style="stop-opacity:.8;stop-color:#fff"/><stop offset="1" style="stop-opacity:0;stop-color:#fff"/></linearGradient><linearGradient id="ay" x1="0" x2="1" y1="0" y2="0" gradientTransform="scale(-33.04783 33.04783) rotate(-86.698 11.73 12.826)" gradientUnits="userSpaceOnUse" spreadMethod="pad"><stop offset="0" style="stop-opacity:1;stop-color:#fffbf7"/><stop offset="1" style="stop-opacity:1;stop-color:#fffbf7"/></linearGradient><linearGradient id="x" x1="0" x2="1" y1="0" y2="0" gradientTransform="matrix(19.46636 0 0 -19.46636 62.846 738.25)" gradientUnits="userSpaceOnUse" spreadMethod="pad"><stop offset="0" style="stop-opacity:1;stop-color:#fff"/><stop offset="0.09066936" style="stop-opacity:1;stop-color:#fff"/><stop offset="1" style="stop-opacity:0;stop-color:#fff"/></linearGradient><linearGradient id="aC" x1="0" x2="1" y1="0" y2="0" gradientTransform="matrix(19.46636 0 0 -19.46636 62.846 738.25)" gradientUnits="userSpaceOnUse" spreadMethod="pad"><stop offset="0" style="stop-opacity:1;stop-color:#dad7d3"/><stop offset="1" style="stop-opacity:1;stop-color:#faf6f2"/></linearGradient><linearGradient id="z" x1="0" x2="1" y1="0" y2="0" gradientTransform="matrix(-.65218 12.3262 12.3262 .65218 62.37 766.096)" gradientUnits="userSpaceOnUse" spreadMethod="pad"><stop offset="0" style="stop-opacity:1;stop-color:#fff"/><stop offset="0.09066936" style="stop-opacity:1;stop-color:#fff"/><stop offset="1" style="stop-opacity:0;stop-color:#fff"/></linearGradient><linearGradient id="aF" x1="0" x2="1" y1="0" y2="0" gradientTransform="matrix(-.65218 12.3262 12.3262 .65218 62.369 766.096)" gradientUnits="userSpaceOnUse" spreadMethod="pad"><stop offset="0" style="stop-opacity:1;stop-color:#bbb8b5"/><stop offset="1" style="stop-opacity:1;stop-color:#faf6f2"/></linearGradient><linearGradient id="B" x1="0" x2="1" y1="0" y2="0" gradientTransform="scale(66.26896) rotate(-90 6.44 5.39)" gradientUnits="userSpaceOnUse" spreadMethod="pad"><stop offset="0" style="stop-opacity:0;stop-color:#fff"/><stop offset="0.02253932" style="stop-opacity:0;stop-color:#fff"/><stop offset="0.512418" style="stop-opacity:1;stop-color:#fff"/><stop offset="0.98274829" style="stop-opacity:0;stop-color:#fff"/><stop offset="1" style="stop-opacity:0;stop-color:#fff"/></linearGradient><linearGradient id="aI" x1="0" x2="1" y1="0" y2="0" gradientTransform="scale(66.26895) rotate(-90 6.44 5.39)" gradientUnits="userSpaceOnUse" spreadMethod="pad"><stop offset="0" style="stop-opacity:1;stop-color:#dad7d3"/><stop offset="0.512418" style="stop-opacity:1;stop-color:#fffbf7"/><stop offset="1" style="stop-opacity:1;stop-color:#eeebe7"/></linearGradient><linearGradient id="D" x1="0" x2="1" y1="0" y2="0" gradientTransform="matrix(0 -66.26886 -66.26886 0 69.694 787.855)" gradientUnits="userSpaceOnUse" spreadMethod="pad"><stop offset="0" style="stop-opacity:0;stop-color:#fff"/><stop offset="0.02253932" style="stop-opacity:0;stop-color:#fff"/><stop offset="0.512418" style="stop-opacity:1;stop-color:#fff"/><stop offset="0.98274829" style="stop-opacity:0;stop-color:#fff"/><stop offset="1" style="stop-opacity:0;stop-color:#fff"/></linearGradient><linearGradient id="aL" x1="0" x2="1" y1="0" y2="0" gradientTransform="matrix(0 -66.26886 -66.26886 0 69.694 787.855)" gradientUnits="userSpaceOnUse" spreadMethod="pad"><stop offset="0" style="stop-opacity:1;stop-color:#dad7d3"/><stop offset="0.512418" style="stop-opacity:1;stop-color:#fffbf7"/><stop offset="1" style="stop-opacity:1;stop-color:#eeebe7"/></linearGradient><linearGradient id="aO" x1="0" x2="1" y1="0" y2="0" gradientTransform="scale(-39.31719 39.31719) rotate(76.333 -12.595 7.988)" gradientUnits="userSpaceOnUse" spreadMethod="pad"><stop offset="0" style="stop-opacity:1;stop-color:#faf6f2"/><stop offset="0.512418" style="stop-opacity:1;stop-color:#fffbf7"/><stop offset="0.677314" style="stop-opacity:1;stop-color:#fffbf7"/><stop offset="0.90099" style="stop-opacity:1;stop-color:#ebe7e3"/><stop offset="1" style="stop-opacity:1;stop-color:#ccc9c6"/></linearGradient><linearGradient id="aP" x1="0" x2="1" y1="0" y2="0" gradientTransform="scale(-12.50247 12.50247) rotate(-59.912 51.801 35.44)" gradientUnits="userSpaceOnUse" spreadMethod="pad"><stop offset="0" style="stop-opacity:1;stop-color:#791426"/><stop offset="0.534653" style="stop-opacity:1;stop-color:#af1c3b"/><stop offset="1" style="stop-opacity:1;stop-color:#791426"/></linearGradient><linearGradient id="aQ" x1="0" x2="1" y1="0" y2="0" gradientTransform="scale(-12.5033 12.5033) rotate(-59.912 51.893 35.383)" gradientUnits="userSpaceOnUse" spreadMethod="pad"><stop offset="0" style="stop-opacity:1;stop-color:#791426"/><stop offset="0.534653" style="stop-opacity:1;stop-color:#af1c3b"/><stop offset="1" style="stop-opacity:1;stop-color:#791426"/></linearGradient><linearGradient id="aR" x1="0" x2="1" y1="0" y2="0" gradientTransform="scale(-12.50216 12.50216) rotate(-59.912 51.651 35.529)" gradientUnits="userSpaceOnUse" spreadMethod="pad"><stop offset="0" style="stop-opacity:1;stop-color:#791426"/><stop offset="0.534653" style="stop-opacity:1;stop-color:#af1c3b"/><stop offset="1" style="stop-opacity:1;stop-color:#791426"/></linearGradient><linearGradient id="aS" x1="0" x2="1" y1="0" y2="0" gradientTransform="scale(60.94679 -60.94679) rotate(-67.166 -8.06 -6.464)" gradientUnits="userSpaceOnUse" spreadMethod="pad"><stop offset="0" style="stop-opacity:1;stop-color:#791426"/><stop offset="0.534653" style="stop-opacity:1;stop-color:#af1c3b"/><stop offset="1" style="stop-opacity:1;stop-color:#791426"/></linearGradient><linearGradient id="aV" x1="0" x2="1" y1="0" y2="0" gradientTransform="scale(67.58574 -67.58574) rotate(65.925 9.157 -4.931)" gradientUnits="userSpaceOnUse" spreadMethod="pad"><stop offset="0" style="stop-opacity:1;stop-color:#791426"/><stop offset="0.534653" style="stop-opacity:1;stop-color:#af1c3b"/><stop offset="1" style="stop-opacity:1;stop-color:#791426"/></linearGradient><mask id="F" width="1" height="1" x="0" y="0" maskUnits="userSpaceOnUse"><g clip-path="url(#a)"><path d="m47.88 751.093 17.634 42.903 34.629-14.233-17.634-42.903Z" style="fill:url(#b);stroke:none"/></g></mask><mask id="J" width="1" height="1" x="0" y="0" maskUnits="userSpaceOnUse"><g clip-path="url(#c)"><path d="m83.332 793.642 16.722-44.177-34.947-13.227-16.722 44.177Z" style="fill:url(#d);stroke:none"/></g></mask><mask id="O" width="1" height="1" x="0" y="0" maskUnits="userSpaceOnUse"><g clip-path="url(#e)"><path d="m117.364 768.953-34.915-60.26-49.242 28.53 34.915 60.261z" style="fill:url(#f);stroke:none"/></g></mask><mask id="U" width="1" height="1" x="0" y="0" maskUnits="userSpaceOnUse"><g clip-path="url(#g)"><path d="M58.788 743.773h12.968v-25.36H58.788Z" style="fill:url(#h);stroke:none"/></g></mask><mask id="Y" width="1" height="1" x="0" y="0" maskUnits="userSpaceOnUse"><g clip-path="url(#i)"><path d="m64.995 736.399-16.511 45.906 36.267 13.044 16.511-45.906z" style="fill:url(#j);stroke:none"/></g></mask><mask id="ac" width="1" height="1" x="0" y="0" maskUnits="userSpaceOnUse"><g clip-path="url(#k)"><path d="m62.511 709.222-24.9 69.231 45.529 16.375 24.9-69.23z" style="fill:url(#l);stroke:none"/></g></mask><mask id="af" width="1" height="1" x="0" y="0" maskUnits="userSpaceOnUse"><g clip-path="url(#m)"><path d="M77.147 751.771H62.952v29.141h14.195z" style="fill:url(#n);stroke:none"/></g></mask><mask id="al" width="1" height="1" x="0" y="0" maskUnits="userSpaceOnUse"><g clip-path="url(#o)"><path d="M58.591 789.495h10.655v-3.357H58.591Z" style="fill:url(#p);stroke:none"/></g></mask><mask id="ap" width="1" height="1" x="0" y="0" maskUnits="userSpaceOnUse"><g clip-path="url(#q)"><path d="m81.33 777.949-11.798 6.401 4.795 8.839 11.798-6.401z" style="fill:url(#r);stroke:none"/></g></mask><mask id="at" width="1" height="1" x="0" y="0" maskUnits="userSpaceOnUse"><g clip-path="url(#s)"><path d="M61.637 790.406h17.78v-2.492h-17.78z" style="fill:url(#t);stroke:none"/></g></mask><mask id="ax" width="1" height="1" x="0" y="0" maskUnits="userSpaceOnUse"><g clip-path="url(#u)"><path d="m62.417 786.279-1.967-34.09-10.282.593 1.966 34.09z" style="fill:url(#v);stroke:none"/></g></mask><mask id="aB" width="1" height="1" x="0" y="0" maskUnits="userSpaceOnUse"><g clip-path="url(#w)"><path d="M62.846 758.914h20.135v-41.628H62.846Z" style="fill:url(#x);stroke:none"/></g></mask><mask id="aE" width="1" height="1" x="0" y="0" maskUnits="userSpaceOnUse"><g clip-path="url(#y)"><path d="m54.861 756.421-1.537 29.049 13.404.709 1.537-29.048z" style="fill:url(#z);stroke:none"/></g></mask><mask id="aH" width="1" height="1" x="0" y="0" maskUnits="userSpaceOnUse"><g clip-path="url(#A)"><path d="M90.411 713.867H51.024v76.539h39.387z" style="fill:url(#B);stroke:none"/></g></mask><mask id="aK" width="1" height="1" x="0" y="0" maskUnits="userSpaceOnUse"><g clip-path="url(#C)"><path d="M90.411 714.442H51.024v75.964h39.387z" style="fill:url(#D);stroke:none"/></g></mask></defs><path d="M0 0c-2.494 4.186-4.797 8.061-6.275 11.782-.49 1.509-.875 2.995-1.113 4.419-.838 4.076-.488 6.47 1.069 9.769l.104.211a7.487 7.487 0 0 0 2.932.932c2.607.257 7.034-.404 8.727-5.166C7.23 16.916 3.417 7.107 0 0m16.101 28.371c-.17.327-.801 1.51-1.018 1.915l-.074.135c-2.754 5.057-2.847 4.099-4.566 4.403-.064.011-.13.028-.194.044-1.958.451-5.323 1.726-6.967 2.33-1.699.622-6.17-.716-9.056-1-.734-.071-1.303-.206-1.757-.383-1.327-.515-1.657-1.39-2.205-2.107-.32-.42-.544-.547-.841-.617-.006-.001-.014-.001-.018-.003-2.245-.805-7.549-7.348-6.403-16.377.082-.886.268-1.749.507-2.594C-14.298 5.452-6.959-6.169-5.157-9.467c-1.328-3.056-4.162-9.331-5.066-15.241-.037-.2-.256-1.558-.27-2.698-.12-3.004.443-5.753 2.185-7.727l.357-.383c.891-.878 1.941-1.436 2.998-1.771 1.496-.644 2.634-.284 3.735-.097a7.803 7.803 0 0 1 1.528-.707c3.148-1.088 6.67-.215 8.32.707 2.213.719 3.222 2.018 3.854 4.032.637 1.897 1.612 5.768-.595 11.497-.991 2.474-2.985 6.346-6.057 11.974l-.02.033C8.275-5.187 14.87 6.346 16.044 9.716c.064.178.119.35.174.522 1.994 5.102 3.296 11.851-.117 18.133" style="fill:#fff;fill-opacity:1;fill-rule:nonzero;stroke:none" transform="matrix(.72827 0 0 -.72827 32.216 27.474)"/><path d="M0 0c-.711 1.371-2.267 4.358-2.599 5.068-3.616-7.046-4.508-14.871-4.565-17.145.038-1.748 0-4.399 2.472-5.528C-1.412-13.138-7.164-6.464 0 0" style="fill:#aca9a6;fill-opacity:1;fill-rule:nonzero;stroke:none" transform="matrix(.72827 0 0 -.72827 30.853 38.855)"/><path d="M0 0c.846 4.201 2.955 7.783.277 13.622-2.206 4.807-6.003 6.527-9.991 5.621h.001c2.609.257 7.037-.402 8.728-5.166C.801 9.046-3.012-.763-6.429-7.87c-.078-.167-.163-.334-.243-.5 1.661-2.883 3.02-5.364 4.642-8.294 0 0 2.186 3.528 3.094 5.126C-.798-7.224-.528-2.617 0 0" style="fill:#aca9a6;fill-opacity:1;fill-rule:nonzero;stroke:none" transform="matrix(.72827 0 0 -.72827 36.898 21.742)"/><path d="M0 0c-.002.145-.002.293-.005.432v.024c-.001.063-.004.119-.004.181A17.269 17.269 0 0 1-.136 2.26a7.027 7.027 0 0 1-.212 1.009c-.316.947-1.074 2.079-1.942 3.168-1.698 2.131-3.818 4.089-3.884 4.151a4.274 4.274 0 0 1-.413-.212c-1.811-1.084-1.769-2.556-8.058.456-.95.455-2.435.167-3.266.112C-11.552 6.221-4.573 6.423 0 0" style="fill:#bcbab7;fill-opacity:1;fill-rule:nonzero;stroke:none" transform="matrix(.72827 0 0 -.72827 44.444 11.764)"/><path d="M0 0c.243.367.463.708.66 1.018a22.024 22.024 0 0 1 .949 1.726c2.582 5.197 3.306 11.261 3.269 15.033-3.236 9.402-12.671 5.209-15.693 11.071-.05-.003-2.313-.135-2.361-.14.148-.189.301-.375.462-.561 1.198-1.368 4.004-4.144 7.022-4.852 3.02-.709 5.552-1.149 8.1-4.944C4.956 14.553 2.246 9.202-.14 3.947c-.952-2.096-1.047-4.202-1.186-6.281.388.536.472 1.16.932 1.778.134.182.265.368.394.556" style="fill:#ccc9c6;fill-opacity:1;fill-rule:nonzero;stroke:none" transform="matrix(.72827 0 0 -.72827 40.89 24.71)"/><path d="M0 0c-2.549 3.797-5.08 4.237-8.1 4.945-3.019.707-5.824 3.485-7.022 4.853-.161.184-.314.372-.462.559-2.082-.203-3.752-1.871-4.879-4.259a15.923 15.923 0 0 1-.966-2.684c.834.722 2.245 1.4 3.826 1.554 3.986.907 7.785-.813 9.99-5.622 2.679-5.837.569-9.421-.278-13.62-.528-2.617-.797-7.224 1.064-11.538.647 1.139 1.346 2.714 3.093 5.127.139 2.081.233 4.187 1.185 6.281C-.162-9.148 2.547-3.796 0 0" style="fill:#bbb8b5;fill-opacity:1;fill-rule:nonzero;stroke:none" transform="matrix(.72827 0 0 -.72827 42.645 11.347)"/><g clip-path="url(#E)" transform="matrix(.72827 0 0 -.72827 -18.157 575.896)"><g mask="url(#F)"><path d="M68.049 785.562c-.05-.003-.098-.01-.147-.012-2.082-.206-3.75-1.871-4.879-4.261a15.826 15.826 0 0 1-.964-2.686c.251.217.55.429.892.624a7.524 7.524 0 0 0 2.934.932c2.607.256 7.036-.404 8.726-5.165 1.787-5.032-2.026-14.841-5.443-21.948 1.659-2.883 2.676-4.711 4.556-7.78 0 0 8.129 12.394 8.221 12.578 2.581 5.197 4.019 11.571 3.634 16.678-.614 8.19-5.729 10.621-5.795 10.682a4.145 4.145 0 0 1-.413-.211c-1.81-1.085-1.857-2.816-8.146.195-.673.324-1.57.402-2.33.402-.313 0-.604-.012-.846-.028" style="fill:url(#G);stroke:none"/></g></g><g clip-path="url(#H)" transform="matrix(.72827 0 0 -.72827 -18.157 575.896)"><path d="M0 0c-2.815-3.926-7.136-24.908-.854-24.173C9.008-22.792 1.307-2.676 0 0" style="fill:#9a9794;fill-opacity:1;fill-rule:nonzero;stroke:none" transform="translate(65.42 743.222)"/></g><g clip-path="url(#I)" transform="matrix(.72827 0 0 -.72827 -18.157 575.896)"><g mask="url(#J)"><path d="M68.049 785.562c-.05-.003-.098-.01-.147-.012-2.082-.206-3.75-1.871-4.879-4.261a15.826 15.826 0 0 1-.964-2.686c.251.217.55.429.892.624a7.524 7.524 0 0 0 2.934.932c2.607.256 7.036-.404 8.726-5.165 1.787-5.032-2.026-14.841-5.443-21.948 1.659-2.883 3.088-5.827 4.713-8.756 0 0 8.717 15.109 8.807 15.294 2.583 5.198 3.692 11.283 3.271 15.033-.43 3.811-1.175 5.175-2.111 6.58-.327.492-3.998 3.946-4.064 4.007a4.145 4.145 0 0 1-.413-.211c-1.81-1.085-1.857-2.816-8.146.195-.673.324-1.57.402-2.33.402-.313 0-.604-.012-.846-.028" style="fill:url(#K);stroke:none"/></g></g><g clip-path="url(#L)" transform="matrix(.72827 0 0 -.72827 -18.157 575.896)"><g clip-path="url(#M)" style="opacity:.27999902"><g clip-path="url(#N)"><g mask="url(#O)"><path d="M72.002 783.008c-2.681-.028-4.642-.901-4.706-1.524 12.524-.41 13.529-9.172 1.286-31.313-4.642-8.395-6.486-16.113-6.509-21.298v-.195c.014-3.269.767-5.496 2.001-6.197.423-.24.876-.353 1.324-.36h.077c1.937.027 3.73 2.061 2.473 4.66-1.564 3.232-.243 9.899 3.758 17.182 4 7.286 17.983 27.314 9.373 35.451-2.863 2.706-6.163 3.567-8.816 3.594z" style="fill:url(#P);stroke:none"/></g></g></g><g clip-path="url(#Q)" style="opacity:.33000201"><g clip-path="url(#R)"><path d="M0 0c.705.229 1.441.356 2.177.433a12.94 12.94 0 0 0 2.227.043C5.889.377 7.378.014 8.709-.708c1.333-.714 2.463-1.801 3.278-3.086.402-.646.732-1.334 1.006-2.043.252-.714.468-1.44.618-2.184.611-2.984.331-6.074-.289-9.015-.63-2.952-1.601-5.812-2.734-8.576-1.124-2.771-2.434-5.446-3.765-8.091l-2.025-3.941-1.986-3.936C1.534-44.212.299-46.862-.555-49.62a20.004 20.004 0 0 1-.534-2.09c-.15-.7-.257-1.411-.295-2.123-.087-1.425.071-2.878.643-4.234l-.172-.091c-.832 1.259-1.242 2.796-1.336 4.322-.103 1.53.082 3.062.389 4.547.295 1.491.75 2.935 1.241 4.355.491 1.422 1.067 2.806 1.661 4.176 2.4 5.466 5.225 10.657 7.73 15.945.618 1.326 1.232 2.651 1.775 4.002a42.233 42.233 0 0 1 1.469 4.104c.824 2.772 1.291 5.694.868 8.556-.093.714-.287 1.414-.495 2.103a11.651 11.651 0 0 1-.871 1.969 8.455 8.455 0 0 1-2.994 3.047C7.279-.29 5.845.126 4.388.281c-.73.077-1.467.094-2.202.047C1.452.279.717.183.005-.017Z" style="fill:#797775;fill-opacity:1;fill-rule:nonzero;stroke:none" transform="translate(66.184 781.752)"/></g></g><g clip-path="url(#S)" style="opacity:.55000299"><g clip-path="url(#T)"><g mask="url(#U)"><path d="M58.788 727.017c0-4.306 1.997-6.824 3.589-7.846.509-.327 1.368-.556 2.279-.575h.241c.372.008.748.051 1.109.139 2.454.598 4.312 3.06 4.355 7.641v.33c-.017 1.83-.316 3.986-.969 6.481-.218.835-1.96 4.613-2.306 5.282-.711 1.37-2.347 4.594-2.68 5.304-2.845-6.431-5.561-14.478-5.618-16.756" style="fill:url(#V);stroke:none"/></g></g></g><g clip-path="url(#W)" style="opacity:.44000202"><g clip-path="url(#X)"><g mask="url(#Y)"><path d="M63.023 781.289a16 16 0 0 1-.964-2.686c.249.217.551.429.893.624a7.514 7.514 0 0 0 2.931.932c2.609.256 7.036-.404 8.729-5.165 1.786-5.032-2.027-14.841-5.444-21.948a569.108 569.108 0 0 0 4.816-8.485s8.614 14.838 8.704 15.023c2.583 5.197 4.999 14.938.981 21.47-1.428 2.321-3.477 4.062-3.545 4.123-.268-.04-.612-.103-.753-.184-1.81-1.085-1.181-1.966-7.59.78a4.115 4.115 0 0 1-1.636.325c-2.96 0-6.173-2.801-7.122-4.809" style="fill:url(#Z);stroke:none"/></g></g></g><g clip-path="url(#aa)" style="opacity:.44000202"><g clip-path="url(#ab)"><g mask="url(#ac)"><path d="M70.157 785.642c-2.085-.015-4.42-1.718-5.289-2.693-1.01-1.135-2.554-3.386-2.809-4.346.834.721 2.244 1.401 3.824 1.556 2.609.256 7.036-.404 8.729-5.165 1.786-5.032-2.027-14.841-5.444-21.948-.08-.167-.162-.335-.243-.5-.343-.609-4.377-8.367-4.519-8.773-2.492-7.188-4.903-14.553-4.96-16.83 0-3.899 1.382-8.275 5.258-8.336h.164c.359.005.737.047 1.138.128 3.688.753 4.605 6.778 4.051 9.882 0 0-1.19 5.044-1.246 5.149 0 0 7.322 14.682 7.85 15.612.644 1.139 5.937 10.021 6.027 10.206 2.583 5.197 3.518 11.269 3.27 15.033-.087 1.325-1.422 5.347-2.289 6.437-1.699 2.131-4.157 4.02-4.298 3.939-1.81-1.085-1.525-1.98-8.056.456-.349.13-.716.19-1.092.193z" style="fill:url(#ad);stroke:none"/></g></g></g></g><g clip-path="url(#ae)" transform="matrix(.72827 0 0 -.72827 -18.157 575.896)"><g mask="url(#af)"><path d="M65.815 780.863a15.018 15.018 0 0 1-2.243-.505l-.389-.596-.232-.535a7.524 7.524 0 0 0 2.934.932c2.607.256 7.036-.404 8.726-5.165 1.787-5.032-2.026-14.841-5.443-21.948-.074-.155-.15-.308-.224-.462.55-.462.983-.813.983-.813.103.17.166.31.258.485 3.518 7.332 6.962 17.716 5.094 22.973-.727 2.043-1.983 3.573-3.734 4.545-.11.06-.775.381-1.006.469a7.264 7.264 0 0 1-.337.128c-.219.076-.9.262-1.012.287a10.662 10.662 0 0 1-2.328.254c-.353 0-.707-.015-1.047-.049" style="fill:url(#ag);stroke:none"/></g></g><g clip-path="url(#ah)" transform="matrix(.72827 0 0 -.72827 -18.157 575.896)"><path d="M0 0c-.274.459-.437.711-.438.712l-.3.506C-4.53 8.036-8.613 13.973-10.833 19.561c-.489 1.509-.874 2.996-1.113 4.418-.837 4.078-.487 6.472 1.07 9.77 1.497 3.174 6.024 7.135 8.557 5.922 5.462-2.615 6.189-1.353 7.506-.279.041.031.144.107.186.146.029.022.196.13.224.15C19.917 28.681 4.566 7.407 0 0m-8.737-25.794a4.18 4.18 0 0 0-1.083-.033 3.88 3.88 0 0 0-1.69.677 4.31 4.31 0 0 0-1.628 2.191c-.889 2.663-.703 7.961 4.053 19.958.495-1.078.961-2.092 1.166-2.508 2.752-5.569 3.413-10.677 3.416-13.727-.297-3.839-2.147-6.167-4.234-6.558m20.281 61.945c-.17.326-.8 1.508-1.018 1.915l-.074.136c-2.754 5.056-2.847 4.096-4.568 4.4-.061.011-.128.03-.192.045-1.958.45-5.325 1.727-6.969 2.329-1.697.623-6.168-.714-9.054-.997-.736-.073-1.303-.207-1.757-.383-1.327-.516-1.657-1.391-2.205-2.108-.32-.419-.546-.548-.842-.616-.005-.002-.013-.002-.017-.005-2.245-.804-7.549-7.348-6.403-16.375.08-.886.268-1.75.506-2.596 2.194-8.664 9.533-20.287 11.335-23.583-1.328-3.057-4.162-9.331-5.066-15.24-.037-.2-.256-1.561-.27-2.697v-.002c-.121-3.004.441-5.755 2.185-7.728l.358-.383c.889-.876 1.94-1.436 2.998-1.772 1.495-.643 2.633-.282 3.732-.094a7.8 7.8 0 0 1 1.531-.708c3.147-1.089 6.669-.214 8.319.708 2.213.718 3.22 2.017 3.854 4.03.637 1.896 1.612 5.769-.594 11.497-.993 2.475-2.986 6.348-6.058 11.975l-.02.033c2.462 4.661 9.057 16.193 10.233 19.564.063.177.118.349.173.52 1.994 5.103 3.296 11.854-.117 18.135" style="fill:#efece8;fill-opacity:1;fill-rule:nonzero;stroke:none" transform="translate(73.725 745.266)"/><path d="M0 0a94.547 94.547 0 0 0-1.392-2.098C-3.03-4.869-4.587-7.219-5.61-8.879c.333-.537 1.075-1.746 1.392-2.322a9.165 9.165 0 0 0-.118.218l-.021.033c.158.298.334.626.524.979C-3.826-8.097-.638-1.456 0 0" style="fill:#dad7d3;fill-opacity:1;fill-rule:nonzero;stroke:none" transform="translate(79.336 754.148)"/><path d="M0 0c-1.209.648-2.752.596-4.223.339C-4.672.26-5.745.054-5.745.054s2.169-.533 3.901-1.145c1.116-.427 2.988-1.15 5.244.04l.042.097C2.402-.843 1.149-.616 0 0" style="fill:#bbb8b5;fill-opacity:1;fill-rule:nonzero;stroke:none" transform="translate(72.427 789.005)"/></g><path d="M65.369 788.492c-.496-.197-.93-.37-1.238-.54-4.07-2.257-5.226-4.491-5.419-4.672-.116-.786-.294-1.389-.382-2.345.753-.388 4.404.323 6.831 2.234.301.252.618.493.948.722.128.099.245.159.343.233.016.006.03.037.045.043 1.388 1.24 3.021 4.28 4.548 3.529.122-.06.243-.115.361-.165-.18.104-.361.207-.544.306-1.094.587-2.252 1.015-3.51 1.015a5.755 5.755 0 0 1-1.983-.36" style="fill:url(#ai);stroke:none" transform="matrix(.72827 0 0 -.72827 -18.157 575.896)"/><g clip-path="url(#aj)" transform="matrix(.72827 0 0 -.72827 -18.157 575.896)"><path d="M0 0a7.128 7.128 0 0 1-.433-1.444 34.786 34.786 0 0 1-.205-1.248C1.928.492 4.514 1.854 4.782 1.981c.3.148 1.124.713 1.49.834C3.488 2.06 1.934.925.271.422A1.786 1.786 0 0 1 0 0" style="fill:#f6f2ee;fill-opacity:1;fill-rule:nonzero;stroke:none" transform="translate(59.35 785.97)"/><path d="M0 0c-4.254 2.385-6.447-.648-6.448-.649-.013-.004-.026-.046-.038-.051-1.512-1.352-3.025-3.236-3.651-5.151C-8.638-2.676-4.111 1.285-1.578.071c5.99-2.867 6.291-1.08 7.916.017C5.151-.629 4.169-2.336 0 0" style="fill:#ebe7e3;fill-opacity:1;fill-rule:nonzero;stroke:none" transform="translate(72.984 784.866)"/><path d="M0 0c-2.792-1.168-4.677 1.121-7.497 2.787a6.747 6.747 0 0 0-.361.167c-1.959.976-5.256-4.199-5.248-4.195.63.464 2.933 3.749 7.187 1.364C-1.751-2.213-1.13-.886.003-.088c.057.039.416.299.416.299S.057.044.003.002L0 0" style="fill:#fffbf7;fill-opacity:1;fill-rule:nonzero;stroke:none" transform="translate(78.904 784.743)"/><path d="M0 0c-2.429-1.847-6.078-2.621-6.83-2.235-.331-3.649-1.125-8.367-.317-13.698.353-2.328.825-4.806 1.217-7.258C-6.926-15.359-7.137-5.957 0 0" style="fill:#efece8;fill-opacity:1;fill-rule:nonzero;stroke:none" transform="translate(65.16 783.17)"/><path d="M0 0c-1.327-.516-1.657-1.39-2.205-2.107-.322-.42-.546-.549-.842-.617.203.043.443.1.716.167.741.186 1.369.461 2.104.785.675.298 1.439.636 2.42 1.036.545.222 1.697.641 2.304.805.615.167 2.213.439 2.3.456 0 0 .614.079.813.109C7.553.63.848.247 0 0" style="fill:#efece8;fill-opacity:1;fill-rule:nonzero;stroke:none" transform="translate(61.637 788.861)"/></g><g clip-path="url(#ak)" transform="matrix(.72827 0 0 -.72827 -18.157 575.896)"><g mask="url(#al)"><path d="M69.079 789.485c-.142-.01-6.595-.377-7.442-.624-1.326-.516-1.657-1.391-2.205-2.106-.322-.421-.546-.55-.841-.618.202.043.442.099.713.168.742.185 1.371.461 2.106.786.674.297 1.439.633 2.421 1.034.543.222 1.695.643 2.301.807.617.165 2.153.432 2.301.453.204.029.615.081.814.109a3.041 3.041 0 0 1-.168-.009" style="fill:url(#am);stroke:none"/></g></g><g clip-path="url(#an)" transform="matrix(.72827 0 0 -.72827 -18.157 575.896)"><path d="M0 0c-.066-.139-.118-.26-.186-.38a9.993 9.993 0 0 0-.757-1.261C1.283-.917 2.279.356 2.911 2.391.553-.085 0 0 0 0" style="fill:#d2cfcb;fill-opacity:1;fill-rule:nonzero;stroke:none" transform="translate(78.74 717.303)"/><path d="M0 0c-1.773.777-3.198-.747-4.089-1.671 3.148-1.087 6.669-.213 8.32.71.269.379.523.802.756 1.259C4.056-1.25 1.715-.752 0 0" style="fill:#dedbd7;fill-opacity:1;fill-rule:nonzero;stroke:none" transform="translate(73.568 716.625)"/><path d="M0 0c.898 1.768 1.374 4.971 1.103 6.765C.802 2.938-1.048.599-3.13.208A4.138 4.138 0 0 0-4.213.175c-.572.076-1.143.299-1.692.676a4.688 4.688 0 0 0-.264.2 4.767 4.767 0 0 0-3.244 3.467c-.003.017-.01.031-.013.047.016-.268.041-.535.073-.798l.006-.057c.098-.796.263-1.56.509-2.279C-7.087-1.74-2.048-4.032 0 0" style="fill:#ebe7e3;fill-opacity:1;fill-rule:nonzero;stroke:none" transform="translate(68.119 719.264)"/><path d="M0 0a4.135 4.135 0 0 0-1.083-.033 3.883 3.883 0 0 0-1.69.676c-.419.29-.78.654-1.07 1.072-1.437 1.488-2.229 4.142-2.356 5.944l-.005.066v-.001.001-.003a16.033 16.033 0 0 1-.109-1.554v-.002a15.924 15.924 0 0 1 .163-3.148.33.33 0 0 0 .012-.058c1.591-3.025 6.006-6.042 8.945-.947C2.043.886 1.051.197 0 0" style="fill:#f2efea;fill-opacity:1;fill-rule:nonzero;stroke:none" transform="translate(64.988 719.472)"/><path d="M0 0c-2.754 5.057-2.847 4.098-4.568 4.401-2.33-.125-4.934-1.751-8.203-.339C-8.17 1.308-4.295 7.249.063-.117l.058-.108c-.019.033-.033.063-.049.089C.033-.06.006-.011 0 0" style="fill:#e7e4e0;fill-opacity:1;fill-rule:nonzero;stroke:none" transform="translate(84.177 783.468)"/></g><g clip-path="url(#ao)" transform="matrix(.72827 0 0 -.72827 -18.157 575.896)"><g mask="url(#ap)"><path d="m79.322 784.955.082.05c1.033.68 3.049 1.039 4.847-1.672-2.641 4.472-5.102 4.061-7.655 3.648-1.667-.27-3.373-.539-5.19.55 2.559-1.649 5.469-4.094 7.916-2.576" style="fill:url(#aq);stroke:none"/></g></g><g clip-path="url(#ar)" transform="matrix(.72827 0 0 -.72827 -18.157 575.896)"><path d="M0 0c1.157.723 2.144 1.734 2.929 2.907C.742.897-3.993 1.549-5.384 6.77c.279-1.765.911-3.35 2.028-4.615.011-.013.342-.368.358-.383C-2.109.894-1.058.336 0 0" style="fill:#ccc9c6;fill-opacity:1;fill-rule:nonzero;stroke:none" transform="translate(64.216 715.758)"/><path d="M0 0c-1.698.623-6.168-.716-9.055-.998-.735-.072-1.304-.208-1.756-.383 1.707.371 1.825.002 6.826.561.025.004.656.065.817.074 1.124.073 2.232-.003 3.146-.493 1.149-.615 2.233-.875 3.274-.987 1.295-.138 2.523-.044 3.715-.104C5.011-1.879 1.644-.602 0 0" style="fill:#f2efea;fill-opacity:1;fill-rule:nonzero;stroke:none" transform="translate(72.449 790.243)"/></g><g clip-path="url(#as)" transform="matrix(.72827 0 0 -.72827 -18.157 575.896)"><g mask="url(#at)"><path d="M71.136 790.405c-2.105-.032-5.43-.934-7.742-1.161-.736-.071-1.304-.207-1.757-.383 1.726.346 1.9.004 6.828.562.023.004.656.065.814.075 1.126.072 2.232-.004 3.147-.493 1.149-.617 2.234-.875 3.274-.986.781-.085 1.536-.085 2.276-.083.487 0 .966 0 1.441-.022-1.959.45-5.325 1.725-6.967 2.329-.292.106-.661.155-1.092.162z" style="fill:url(#au);stroke:none"/></g></g><g clip-path="url(#av)" transform="matrix(.72827 0 0 -.72827 -18.157 575.896)"><path d="m0 0-.136-.069C-2-1.075-3.722-.608-4.837-.181c.182-.098.365-.2.543-.308 3.269-1.412 5.873.216 8.203.341-.061.011-.128.028-.192.044C2.525-.044 1.297-.139 0 0" style="fill:#ebe7e3;fill-opacity:1;fill-rule:nonzero;stroke:none" transform="translate(75.7 788.018)"/><path d="M0 0c-2.117 9.341-6.723 15.423-10.78 20.406a30.19 30.19 0 0 0-6.179 12.908 112.7 112.7 0 0 0 .227-2.948c.785-5.729 2.921-12.534 9.205-20.234C-1.817 3.137-.608 2.183 0 0" style="fill:#fffbf7;fill-opacity:1;fill-rule:nonzero;stroke:none" transform="translate(79.336 730.954)"/><path d="m0 0 .066-.153.41-.968C1.537-3.611.44-5.662.23-6.015 1.761-11.432.156-17.63-2.33-23.264c-1.083-2.468-1.043-4.68-1.357-6.24l.011.022c2.065 3.819 3.953 7.451 4.532 9.109.063.178.118.35.173.522C3.022-14.749 4.325-7.999.913-1.718A468.29 468.29 0 0 1 0 0" style="fill:#ebe7e3;fill-opacity:1;fill-rule:nonzero;stroke:none" transform="translate(84.357 783.134)"/><path d="M0 0c1.508-1.16 2.555-2.528 3.453-3.887C3.148-1.732 2.604.407.801.224A2.303 2.303 0 0 1 .147.068C.14.066.121.095 0 0" style="fill:#dedbd7;fill-opacity:1;fill-rule:nonzero;stroke:none" transform="translate(79.322 784.954)"/><path d="M0 0c-.014.035-1.072 1.57-1.674 2.183-.662.717-1.622 1.144-2.462 1.122-.774-.02-1.078-.227-1.318-.345-.038-.017-.082-.052-.102-.066 2.58.741 3.072-1.754 3.453-3.885A14.029 14.029 0 0 0-.292-4.946C-.145-4.67.952-2.451 0 0" style="fill:#ccc9c6;fill-opacity:1;fill-rule:nonzero;stroke:none" transform="translate(84.88 782.06)"/><path d="M0 0c1.121.916 2.044 1.915 3.225 1.876-.85.036-4.021-.645-4.756-1.168A7.973 7.973 0 0 1 0 0" style="fill:#d2cfcb;fill-opacity:1;fill-rule:nonzero;stroke:none" transform="translate(69.479 714.955)"/><path d="M0 0a16.973 16.973 0 0 1-.292 2.569c-.321 1.662-.904 3.209-1.801 4.475-3.307 4.664-11.233 13.263-13.289 19.962.597-4.199-.421-9.248 1.261-11.728.572-.737 1.125-1.464 1.653-2.176 4.034-4.814 8.729-7.606 8.581-14.435-.079-3.618-1.296-4.909-3.075-6.577.069-.023.14-.05.214-.082 1.717-.748 4.056-1.249 4.986.298C-.561-5.345.123-3.17 0 0" style="fill:#efece8;fill-opacity:1;fill-rule:nonzero;stroke:none" transform="translate(80.316 724.617)"/><path d="M0 0c1.067 8.783-4.004 13.488-8.835 19.024-.559.622-2.173 1.33-1.54-.128 2.727-4.287 4.546-8.446 4.978-10.176C-2.85-1.491-5.648-4.721-8.789-7.043c.734.524 3.906 1.205 4.754 1.168.208-.006.424-.045.651-.123C-1.937-4.64-.928-3.926-.358-1.764c.081.3.153.634.226 1.003.047.238.099.49.132.761" style="fill:#e7e4e0;fill-opacity:1;fill-rule:nonzero;stroke:none" transform="translate(76.738 722.705)"/><path d="M0 0c-1.179 4.722-3.974 12.093-8.934 18.529-.076-.23-.514-1.619-.877-2.652.33-.569.606-1.049.809-1.421.255-.494.419-.837.629-1.315.495-1.078.962-2.092 1.166-2.508C-4.454 5.064-3.794-.043-3.791-3.094c.205-3.824-1.709-8.212-5.006-10.271 1.496-.645 2.634-.284 3.734-.096C-2.379-12.484 2.547-10.212 0 0" style="fill:#f2efea;fill-opacity:1;fill-rule:nonzero;stroke:none" transform="translate(73.012 729.124)"/></g><g clip-path="url(#aw)" transform="matrix(.72827 0 0 -.72827 -18.157 575.896)"><g mask="url(#ax)"><path d="M56.257 783.302c-3.328-4.549-4.151-11.925-2.821-15.84 1.699-5.005 2.459-7.48 6.656-14.176.386-.615-2.175 9.621-2.735 12.111-.512 2.278-2.066 11.586 1.22 18.923.305.681.653 1.431 1.045 2.071-1.319-.692-2.439-1.825-3.365-3.089" style="fill:url(#ay);stroke:none"/></g></g><g clip-path="url(#az)" transform="matrix(.72827 0 0 -.72827 -18.157 575.896)"><path d="M0 0c-1.526-.735-2.845-1.827-3.955-3.064a13.964 13.964 0 0 1-2.58-4.22c-1.204-3.091-1.296-6.508-.769-9.78.496-3.296 1.686-6.482 2.364-9.841.344-1.674.536-3.395.481-5.108a18.238 18.238 0 0 0-.886-5.021c.329 1.663.503 3.347.435 5.021-.05 1.674-.333 3.327-.728 4.954-.405 1.625-.9 3.236-1.387 4.862-.472 1.63-.913 3.288-1.181 4.991-.258 1.701-.361 3.436-.222 5.164.083.862.202 1.722.414 2.564.201.843.47 1.674.825 2.465a13.57 13.57 0 0 0 2.913 4.255C-3.042-1.567-1.609-.553 0 0" style="fill:#ccc9c6;fill-opacity:1;fill-rule:nonzero;stroke:none" transform="translate(66.76 785.548)"/><path d="M0 0c.339.903.556 1.841.659 2.793.083.954.104 1.912.033 2.869C.591 7.577.298 9.481.011 11.385c-.277 1.906-.597 3.808-.854 5.719-.271 1.909-.361 3.825-.544 5.745L.355 11.437C.642 9.53.909 7.613.974 5.674a18.29 18.29 0 0 0-.135-2.903C.675 1.813.416.872 0 0" style="fill:#ccc9c6;fill-opacity:1;fill-rule:nonzero;stroke:none" transform="translate(63.301 745.134)"/><path d="M0 0c-.372-1.214-.708-2.437-.954-3.677a33.467 33.467 0 0 1-.58-3.744 37.112 37.112 0 0 1 .008-7.555c.245-2.511.831-4.976 1.457-7.43.309-1.23.644-2.454.925-3.696.263-1.241.514-2.504.476-3.779-.058 1.271-.348 2.508-.679 3.73-.328 1.223-.694 2.437-1.044 3.657-.708 2.438-1.285 4.932-1.571 7.472a33.236 33.236 0 0 0-.172 3.824c.017 1.276.083 2.552.25 3.816.166 1.266.404 2.519.71 3.755A30.67 30.67 0 0 0 0 0" style="fill:#ccc9c6;fill-opacity:1;fill-rule:nonzero;stroke:none" transform="translate(58.51 784.166)"/><path d="M0 0c-.558-1.055-.936-2.191-1.244-3.339a30.595 30.595 0 0 1-.687-3.494 29.904 29.904 0 0 1-.11-7.093c.244-2.353.807-4.675 1.748-6.838.481-1.072 1.024-2.142 1.559-3.196.526-1.063 1.133-2.084 1.699-3.142-.38.464-.739.941-1.088 1.43-.339.492-.668.996-.977 1.51-.301.52-.591 1.045-.861 1.579a25.641 25.641 0 0 0-.774 1.629c-.947 2.22-1.499 4.594-1.729 6.985-.238 2.395-.108 4.811.259 7.177.191 1.182.455 2.355.808 3.498C-1.043-2.153-.619-1.021 0 0" style="fill:#dedbd7;fill-opacity:1;fill-rule:nonzero;stroke:none" transform="translate(56.131 783.121)"/><path d="M0 0c1.091 1.658 2.598 3.014 4.237 4.142.826.56 1.718 1.033 2.675 1.365.345.115.695.215 1.059.273.142.024.292.036.437.046.26.012.523.017.785-.027.266-.032.52-.117.753-.197 1.907-.679 3.559-1.819 5.23-2.848.837-.513 1.691-1.006 2.618-1.301.46-.148.944-.239 1.428-.206.484.03.963.176 1.389.428a2.98 2.98 0 0 0-1.378-.543c-.501-.067-1.01-.003-1.497.119-.976.259-1.863.737-2.729 1.216-1.724.971-3.359 2.106-5.203 2.722-.235.074-.451.148-.676.18-.225.041-.46.039-.694.033a5.643 5.643 0 0 1-1.395-.279c-.918-.297-1.781-.765-2.615-1.272a18.141 18.141 0 0 1-2.361-1.745A14.777 14.777 0 0 1 0 0" style="fill:#ccc9c6;fill-opacity:1;fill-rule:nonzero;stroke:none" transform="translate(58.712 783.278)"/><path d="M0 0c.394.323.898.537 1.43.574A2.968 2.968 0 0 0 2.973.246C3.814-.18 4.436-.785 4.926-1.622a7.07 7.07 0 0 0 .112-.206l.074-.141c.528-.977.867-1.923.908-2.961.053-1.034-.182-2.064-.754-2.912.454.885.613 1.904.523 2.896a6.909 6.909 0 0 1-.93 2.813C4.36-1.28 3.674-.522 2.823-.041c-.426.236-.9.381-1.387.396A2.858 2.858 0 0 1 0 0" style="fill:#bbb8b5;fill-opacity:1;fill-rule:nonzero;stroke:none" transform="translate(79.322 784.954)"/><path d="M0 0c.471-2.191 1.199-4.317 2.224-6.294A25.48 25.48 0 0 1 3.92-9.167l.958-1.377.478-.696c.158-.232.3-.478.451-.714.607-.949 1.125-1.95 1.619-2.964a22.983 22.983 0 0 0 1.176-3.168c.297-1.086.518-2.194.617-3.315.108-1.12.125-1.592.084-2.709-.027 1.119-.077 1.587-.233 2.692a20.33 20.33 0 0 1-.702 3.264c-.331 1.064-.76 2.094-1.22 3.106-.496.996-1.015 1.983-1.625 2.917-.151.234-.295.473-.451.703l-.479.686c-.315.456-.645.916-.955 1.384A25.932 25.932 0 0 0 1.953-6.43 21.412 21.412 0 0 0 0 0" style="fill:#ccc9c6;fill-opacity:1;fill-rule:nonzero;stroke:none" transform="translate(64.417 747.855)"/><path d="M0 0c.169-1.513.564-2.99 1.017-4.439A34.572 34.572 0 0 1 2.658-8.68c1.284-2.745 2.923-5.341 5.043-7.498.533-.527 1.09-1.075 1.588-1.657.501-.583.957-1.204 1.374-1.851a15.373 15.373 0 0 0 1.881-4.191c.692-2.484.783-5.107.353-7.629a18.913 18.913 0 0 0-.311-1.447c.298 1.495.446 3.014.393 4.529a17.082 17.082 0 0 1-.702 4.468c-.44 1.443-1.057 2.834-1.886 4.095a16.555 16.555 0 0 1-1.361 1.802c-.495.574-1.035 1.085-1.578 1.638-2.131 2.211-3.798 4.837-5.034 7.629A33.907 33.907 0 0 0 .856-4.486a31.424 31.424 0 0 0-.541 2.223C.165-1.516.035-.761 0 0" style="fill:#d2cfcb;fill-opacity:1;fill-rule:nonzero;stroke:none" transform="translate(63.794 753.893)"/><path d="M0 0c.793 1.54 1.444 3.137 2.014 4.757a44.73 44.73 0 0 1 1.425 4.945c.375 1.672.64 3.37.746 5.08.042.854.044 1.715-.049 2.564l-.066.64-.133.629-.064.316c-.027.105-.071.203-.103.305l-.206.615c.81-1.546 1.005-3.348 1.001-5.079 0-.873-.062-1.744-.174-2.61a26.465 26.465 0 0 0-.443-2.574 31.643 31.643 0 0 0-1.522-4.987C1.78 2.989.988 1.425 0 0" style="fill:#fffbf7;fill-opacity:1;fill-rule:nonzero;stroke:none" transform="translate(81.943 757.843)"/></g><g clip-path="url(#aA)" transform="matrix(.72827 0 0 -.72827 -18.157 575.896)"><g mask="url(#aB)"><path d="M63.069 758.457c-.061.293-.099.457-.099.457s.033-.162.099-.457m-.224-12.842c.165-.284.3-.507.442-.761.066-.118.139-.241.206-.358 5.634-9.849 14.466-17.034 9.503-24.81-.443-.695-.896-1.408-1.672-2.101.897.739 1.599.651 2.226.561.66-.094 1.24-.189 1.884.686.182.247.425.646.633 1.162.112.271.212.57.313.947 0 0 2.708-3.655 5.354-1 .891 2.966 1.246 7.434-2.709 12.289-4.5 5.524-7.305 6.082-10.94 12.308-2.875 4.922-4.598 12.058-5.016 13.919.422-2.013 1.944-10.105-.224-12.842" style="fill:url(#aC);stroke:none"/></g></g><g clip-path="url(#aD)" transform="matrix(.72827 0 0 -.72827 -18.157 575.896)"><g mask="url(#aE)"><path d="M57.581 781.04c-.809-3.564-1.317-8.785-.506-14.116.353-2.331 2.079-7.42 2.47-9.873-.993 7.831-4.718 22.816 7.216 28.499-2.842-.705-8.428-4.894-9.18-4.51" style="fill:url(#aF);stroke:none"/></g></g><g clip-path="url(#aG)" transform="matrix(.72827 0 0 -.72827 -18.157 575.896)"><g mask="url(#aH)"><path d="M71.136 790.405c-2.105-.032-5.43-.934-7.742-1.161-.736-.071-1.304-.207-1.757-.383-1.326-.516-1.657-1.391-2.205-2.106-.322-.421-.546-.55-.841-.618-.007-.001-.014-.001-.019-.004-2.245-.805-7.548-7.349-6.403-16.376a14.41 14.41 0 0 1 .508-2.594c2.191-8.665 9.532-20.286 11.334-23.584-1.328-3.056-4.162-9.331-5.066-15.24-.038-.201-.256-1.559-.27-2.696-.122-3.008.442-5.756 2.186-7.73.01-.013.341-.369.356-.384.889-.877 1.941-1.435 2.997-1.771h.001c1.496-.642 2.636-.283 3.733-.096a7.873 7.873 0 0 1 1.53-.707c3.148-1.088 6.669-.215 8.32.707 2.213.719 3.222 2.02 3.854 4.032.637 1.896 1.612 5.768-.594 11.496-.994 2.475-2.986 6.347-6.06 11.974l-.019.034c2.462 4.661 9.058 16.192 10.233 19.564.063.178.119.35.174.522 1.993 5.102 3.296 11.853-.117 18.132-.17.329-.8 1.508-1.018 1.917l-.074.134c-2.754 5.058-2.847 4.099-4.568 4.403-.062.009-.128.028-.192.044-1.959.45-5.325 1.725-6.967 2.329-.292.106-.661.155-1.092.162zm2.15-44.426-.299.506c-3.792 6.816-7.875 12.754-10.094 18.341-.491 1.51-.875 2.997-1.114 4.42-.837 4.076-.488 6.472 1.07 9.768 1.497 3.175 6.024 7.136 8.557 5.924 2.785-1.334 4.317-1.649 5.328-1.526.971.12 1.453.649 2.098 1.177.134.117.462.344.49.366 1.513-1.165 2.556-2.525 3.456-3.885 7.632-11.529-4.968-29.179-9.054-35.804-.275.46-.436.712-.438.713m-9.382-26.539c-.571.075-1.142.3-1.691.675a4.34 4.34 0 0 0-1.628 2.191c-.887 2.666-.701 7.963 4.054 19.958.497-1.076.964-2.091 1.166-2.507 2.752-5.569 3.413-10.676 3.417-13.728-.297-3.837-2.148-6.166-4.235-6.557a4.283 4.283 0 0 0-1.083-.032" style="fill:url(#aI);stroke:none"/></g></g><g clip-path="url(#aJ)" transform="matrix(.72827 0 0 -.72827 -18.157 575.896)"><g mask="url(#aK)"><path d="M71.242 790.406c-2.098-.002-5.498-.931-7.848-1.162-.736-.071-1.304-.207-1.757-.383-1.326-.516-1.657-1.391-2.205-2.106-.322-.421-.546-.55-.841-.618-.007-.001-.014-.001-.019-.004-2.245-.805-7.548-7.349-6.403-16.376a14.41 14.41 0 0 1 .508-2.594c2.191-8.665 9.532-20.286 11.334-23.584-1.328-3.056-4.162-9.331-5.066-15.24-.038-.201-.256-1.559-.27-2.698-.122-3.006.442-5.754 2.186-7.728.01-.013.341-.369.356-.384.889-.877 1.941-1.435 2.997-1.771h.001c1.496-.642 2.636-.283 3.733-.096a7.873 7.873 0 0 1 1.53-.707c1.069-.369 2.18-.512 3.247-.506 2.075.015 3.984.605 5.073 1.213 2.213.719 3.222 2.02 3.854 4.032.637 1.896 1.612 5.768-.594 11.496-.994 2.475-2.986 6.347-6.06 11.974l-.019.034c2.462 4.661 9.058 16.192 10.233 19.564.063.178.119.35.174.522 1.993 5.102 3.296 11.853-.117 18.132-.17.327-.8 1.508-1.018 1.917l-.074.134c-2.754 5.058-2.847 4.099-4.568 4.403-.062.009-.128.028-.192.044-1.959.45-5.325 1.725-6.967 2.329-.312.114-.717.163-1.187.163zm2.044-44.427-.299.506c-3.792 6.816-7.875 12.754-10.094 18.341-.491 1.51-.875 2.997-1.114 4.42-.837 4.076-.488 6.472 1.07 9.768 1.497 3.175 6.024 7.136 8.557 5.924 2.785-1.334 4.317-1.649 5.328-1.526.971.12 1.453.649 2.098 1.177.134.117.462.344.49.366 1.513-1.165 2.556-2.525 3.456-3.885 7.632-11.529-4.968-29.179-9.054-35.804-.275.46-.436.712-.438.713m-9.382-26.539c-.571.075-1.142.3-1.691.675a4.34 4.34 0 0 0-1.628 2.191c-.887 2.666-.701 7.963 4.054 19.958.497-1.076.964-2.091 1.166-2.507 2.752-5.569 3.413-10.676 3.417-13.728-.297-3.837-2.148-6.166-4.235-6.557a4.283 4.283 0 0 0-1.083-.032" style="fill:url(#aL);stroke:none"/></g></g><g clip-path="url(#aM)" transform="matrix(.72827 0 0 -.72827 -18.157 575.896)"><path d="M0 0c.071 3.51-.593 6.972-1.693 10.264-1.106 3.298-2.654 6.431-4.445 9.412-.89 1.498-1.819 2.997-2.69 4.516a136.523 136.523 0 0 0-2.538 4.609c-1.624 3.107-3.151 6.277-4.297 9.595a71.507 71.507 0 0 1 2.289-4.72 154.117 154.117 0 0 1 2.503-4.607c1.712-3.05 3.515-6.035 5.337-9.032 1.798-3.025 3.34-6.226 4.355-9.61A30.539 30.539 0 0 0-.076 5.261C.129 3.513.167 1.743 0 0" style="fill:#e1deda;fill-opacity:1;fill-rule:nonzero;stroke:none" transform="translate(70.606 724.928)"/><g clip-path="url(#aN)" style="opacity:.42999303"><path d="M57.231 758.604a158.81 158.81 0 0 1 2.503-4.607c.353-.628.709-1.254 1.07-1.878a63.263 63.263 0 0 1 3.46-4.988c5.821-7.554 9.479-15.249 6.842-22.675-.479-1.352-.238-1.986.369-2.012h.08c1.674.068 5.759 4.284 5.825 10.631v.31c-.045 4.36-1.994 9.69-7.866 15.357-9.128 6.933-14.57 14.58-14.57 14.58a70.937 70.937 0 0 1 2.287-4.718" style="fill:url(#aO);stroke:none"/></g><path d="M0 0c-.21.478-.374.821-.629 1.315-1.327-3.057-4.161-9.332-5.066-15.241-.036-.2-.255-1.561-.269-2.699.02-.203.05-.394.089-.569.798-3.444 2.04-4.03 2.557-4.118a4.31 4.31 0 0 0-.735 1.354C-4.941-17.294-4.756-11.995 0 0" style="fill:#f2efea;fill-opacity:1;fill-rule:nonzero;stroke:none" transform="translate(64.64 742.265)"/><path d="M0 0c-.993 2.473-2.985 6.346-6.059 11.975l-.019.031s-1.992 3.287-1.994 3.288c-3.791 6.816-7.873 12.753-10.094 18.343-.489 1.508-.875 2.995-1.113 4.418l-.003.017c-.002.01-.003.018-.006.026.216-1.384.16-2.817.606-5.022a30.242 30.242 0 0 1 6.179-12.908C-8.444 15.187-3.838 9.103-1.721-.237c.272-1.201.679-3.879.84-6.363.194-2.995-.366-5.086-1.435-7.291.026-.037.669-.893 2.532 1.708.15.227.269.457.378.686C1.231-9.601 2.207-5.73 0 0" style="fill:#fffbf7;fill-opacity:1;fill-rule:nonzero;stroke:none" transform="translate(81.058 731.191)"/></g><path d="M54.769 776.402a2.797 2.797 0 0 1 2.799-2.797c1.547 0 2.8 1.251 2.8 2.797a2.8 2.8 0 1 1-5.599 0m3.173 1.324a.722.722 0 0 0-.463.667c.029.002.058.008.089.008.459 0 .877-.159 1.214-.421a.715.715 0 0 0-.84-.254m-2.236-.605a2 2 0 0 0 .904 1.026.703.703 0 0 0 .101-.359c0-.4-.323-.723-.722-.723a.708.708 0 0 0-.283.056m1.432-1.428-.36.678a.206.206 0 0 0 .032.234l.536.552c.06.063.154.081.231.042l.691-.338a.197.197 0 0 0 .11-.208l-.107-.761a.2.2 0 0 0-.163-.17l-.757-.132c-.011-.002-.024-.002-.035-.002a.201.201 0 0 0-.178.105m1.784.568c0 .342.239.625.555.703.054-.18.09-.365.09-.562 0-.29-.064-.565-.178-.814a.72.72 0 0 0-.467.673m-3.291-.331a.722.722 0 0 0 .905-.697.706.706 0 0 0-.15-.436 1.99 1.99 0 0 0-.755 1.133m1.758-1.509a.718.718 0 0 0 .712.629.723.723 0 0 0 .586-.304 1.984 1.984 0 0 0-1.119-.342c-.062 0-.121.011-.179.017" style="fill:url(#aP);stroke:none" transform="matrix(.72827 0 0 -.72827 -18.157 575.896)"/><path d="m57.9 781.478.646-1.12 1.12.646-.646 1.12z" style="fill:url(#aQ);stroke:none" transform="matrix(.72827 0 0 -.72827 -18.157 575.896)"/><path d="m56.31 771.438.932-.899.899.928-.931.902z" style="fill:url(#aR);stroke:none" transform="matrix(.72827 0 0 -.72827 -18.157 575.896)"/><path d="M75.093 724.415c-.1-.131-.154-.35-.178-.631a4.506 4.506 0 0 1 .007-.783c-.105.115-.313.153-.424.068.029-.113.067-.216.082-.337.012-.084.012-.177.013-.267-.195-.143-.42-.337-.451-.699-.005-.058-.003-.111-.003-.166-.073.23-.2.465-.263.665a1.068 1.068 0 0 1-.259.439c-.029.029-.067.038-.102.059-.022-.059-.039-.122-.061-.176-.009-.027-.013-.055-.024-.109-.067.069-.121.132-.188.181a.427.427 0 0 1-.171.064c-.128.029-.15-.002-.15-.189 0-.061-.003-.126-.005-.206-.279.107-.434-.119-.428-.125.059-.055.111-.089.124-.174.013-.08-.019-.206-.059-.315-.08-.216-.027-.583.128-.726.111-.103.317-.084.462.057.168.156.22.638.126.788-.057.09-.097.091-.208.015.029-.063.087-.124.079-.195a.521.521 0 0 0-.121-.254c-.078-.084-.166-.092-.229-.023-.11.123-.112.336-.01.536a.796.796 0 0 0 .138.186c.158.115.345.148.46.066.128-.091.206-.238.222-.456.03-.38-.167-.972-.149-1.35.013-.35.263-.488.554-.545.128-.025.459-.063.527-.088.346-.124.646-.105.83.214.189.327.292.944.494 1.269.117.185.252.279.408.305.142.019.292-.091.38-.267a.772.772 0 0 0 .038-.229c-.004-.224-.105-.413-.258-.47-.091-.033-.166.011-.195.123a.52.52 0 0 0 .012.282c.025.065.103.091.158.135-.063.119-.099.138-.191.083-.153-.092-.313-.535-.235-.749.061-.191.237-.301.382-.26.207.058.404.348.436.581a.779.779 0 0 0 .092.305c.051.071.112.077.193.097.006.002.011.016.022.033-.045.245-.213.205-.345.271.034.075.061.131.091.188.087.166.081.204-.047.233a.415.415 0 0 1-.182.021c-.08-.011-.159-.046-.25-.076.014.053.023.08.028.106.008.06.021.125.029.186a.162.162 0 0 0-.044 0c-.026 0-.051.002-.078-.006-.128-.036-.214-.116-.377-.212-.152-.09-.348-.317-.507-.545.019.079.041.156.07.227.103.263.084.425-.018.551l-.116.188c.012.028.025.06.037.097.054.176.137.313.202.487-.029.111-.227.214-.358.168.074.238.125.497.127.799a1.12 1.12 0 0 1-.141.577c-.011.019-.027.027-.043.027-.028 0-.059-.021-.083-.049m-5.084-3.269-.14.487c-.208-.041-.332-.2-.422-.37-.088-.169-.134-.357-.202-.53-.084.072-.168.148-.254.224-.268-.317-.312-.649-.069-1.037.199-.316.434-.606.659-.893.256-.329.516-.643.534-1.073.019-.402-.197-.753-.539-1.04-.271-.229-.572-.314-.95-.316-.012 0-.044-.112-.05-.133.034-.157.316-.086.458-.05 1.067.27 1.756 1.08 1.436 1.9-.123.326-.539.844-.698 1.16-.133.259-.252.521-.195.827.071.361.423.713.87.639.254-.041.455-.251.453-.506a.57.57 0 0 0-.304-.452c-.105-.044-.214-.059-.295.017-.074.074-.074.166-.025.266.008.016.01.034.014.053-.164-.013-.37-.237-.347-.412.043-.306.731-.55 1.047-.342.29.188.446.628.342.982-.101.342-.255.521-.58.626a.885.885 0 0 0-.091.042c.065.164.118.306.173.462l-.062.001c-.358 0-.559-.225-.763-.532m2.446-1.259c-.208-.089-.458-.338-.505-.51.102.027.197.061.285.076.191.024.32-.07.354-.248.028-.151-.082-.416-.235-.545-.248-.211-.51-.397-.767-.592-.299-.221-.433-.483-.411-.781.027-.398.362-.682.421-.739-.519-.659-1.135-1.209-1.761-1.709a8.21 8.21 0 0 1 .517-.136c.564.48 1.114.99 1.646 1.573.452-.199 1.005-.243 1.439.091.279.216.408.478.52.753.085.208.15.419.222.631.1.288.309.52.528.606.201.078.321-.021.339-.283l.007-.125c.138.175.189.352.227.517.067.315-.007.508-.139.634-.157.147-.421.158-.69-.046a1.548 1.548 0 0 1-.336-.375 5.469 5.469 0 0 1-.33-.594 6.723 6.723 0 0 0-.752-.859c.195.292.344.602.474.915.113.27.206.544.296.82.012.034.017.07.031.133-.048-.046-.075-.063-.096-.09-.374-.453-.796-.864-1.215-1.266-.042-.039-.074-.083-.113-.126.018.216.176.496.341.739.062.063.12.126.175.194.172.203.321.448.415.685.12.311.017.51-.163.631a.614.614 0 0 1-.355.112.954.954 0 0 1-.369-.086m-4.272-.768c-.182.011-.547.025-.551.011 1.022-.517 1.323-1.228 1.489-2.098.22.107.437.763.399 1.108-.051.479-.317.828-.754 1.16a2.52 2.52 0 0 0-.032-.154c-.238.109-.387.34-.69.389.049-.15.093-.28.139-.416m9.21-1.253c-.017.009-.043.019-.071.034-.197.111-.936.277-1.315-.13-.261-.289-.573-1.015-.095-1.328.117-.074.202-.146.388-.055.155.079.258.223.33.388.014.03.016.063.027.11-.03-.023-.046-.032-.061-.049-.154-.168-.244-.212-.319-.161-.075.046-.134.323-.049.476.227.407.655.544.867.414.168-.104.206-.328.071-.661-.158-.389-.423-.701-.742-.833-.291-.12-.577-.166-.863-.204-.178-.021-.354.021-.539.061-.233.053-.476.105-.738.032-.707-.202-1.532-.852-2.001-1.504a5.27 5.27 0 0 1 .281-.007c.136.16.298.317.488.461.544.42 1.083.636 1.591.613.401-.021.757-.097 1.129-.113.228-.011.451-.025.688.017.333.06.656.314.937.776-.09.019-.173.036-.266.059.39.35.701.759.803 1.301a6.752 6.752 0 0 0-.466-.296c.103.217.204.423.267.624.067.213.059.385-.017.502a19.537 19.537 0 0 0-.325-.527m-7.757-1.514c-.223-.182-.217-.485-.033-.724.062-.081.133-.151.181-.207.193.159.359.322.546.465.414.319.534.689.474 1.072-.014.094-.041.185-.066.304-.374-.334-.752-.621-1.102-.91m-1.832-.119a7.235 7.235 0 0 0-.579.041c-.002-.016.212-.222.338-.317a12.84 12.84 0 0 0-.262-.216c.912.036 1.59-.386 2.269-.809-.087.547-.862 1.284-1.802 1.418l.036-.117m3.64-1.17c-.145-.167-.347-.323-.519-.474.324-.056.643-.092.962-.112a.563.563 0 0 1 .108.063c.177.127.322.298.469.459.107.119.188.255.291.382.096.121.205.237.311.363-.657-.019-1.207-.202-1.622-.681m3.409.024c-.564-.048-1.185-.306-1.782-.629.942.035 1.842.186 2.637.396-.18.157-.407.239-.704.239-.048 0-.099-.003-.151-.006" style="fill:url(#aS);stroke:none" transform="matrix(.72827 0 0 -.72827 -18.157 575.896)"/><g clip-path="url(#aT)" transform="matrix(.72827 0 0 -.72827 -18.157 575.896)"><g clip-path="url(#aU)"><path d="M69.298 744.066c-.03-.004-.055-.02-.057-.05v-.01c.01-.165.055-.356.217-.603.179-.273.375-.476.583-.647-.143-.038-.26-.246-.217-.364.159-.117.315-.193.466-.319.317-.26.48-.121.505-.004.007.042-.042.118-.115.206a.334.334 0 0 1 .222-.101c.139.031.233.095.128.313-.056.111-.157.238-.212.354-.058.122-.085.235-.127.353-.149.012-.313-.143-.336-.309a4.79 4.79 0 0 1-.459.709c-.186.239-.366.405-.531.464a.163.163 0 0 1-.037.008zm2.668-1.031c.038-.268.318-.714.598-1.059-.121.285-.072.447.038.588.042.052.031.249-.122.436-.059.073-.195.21-.284.235a.277.277 0 0 1-.08.013c-.121 0-.165-.106-.15-.213m1.888-.252c-.065-.052-.181-.147-.246-.506a2.714 2.714 0 0 1-.277.268c-.027-.046-.064-.08-.079-.134-.05-.164-.023-.361.092-.575.196-.371.411-.736.628-1.099.4-.67.784-1.313.566-1.901l.069.003c.015.005.023.024.035.031.299.209.521.562.303.986-.224.438-.825.988-1.034 1.437-.122.257-.128.473-.043.658.078.166.306.25.558.222a1.07 1.07 0 0 0 .274-.123c.245-.166.381-.409.333-.615-.027-.119-.13-.17-.271-.121a.704.704 0 0 0-.3.211c-.054.074-.027.178-.035.269-.174.017-.22-.009-.225-.147-.011-.231.269-.564.558-.633.252-.069.5.043.558.229.084.263-.006.53-.236.728-.114.094-.23.218-.268.318-.039.101-.003.174.028.277.004.009-.008.023-.017.046-.3.126-.377-.083-.543-.179l-.14.234c-.071.126-.113.181-.166.181-.033 0-.071-.023-.122-.065m-2.344-.377a.2.2 0 0 1-.03-.239c.101-.191.306-.381.532-.49a2.967 2.967 0 0 0 1.112-.921c.05-.071.098-.143.145-.216-.249.247-.539.473-.802.703-.283.243-.556.356-.787.345-.068-.004-.116-.066-.113-.134.011-.238.172-.482.413-.774.204-.247.408-.531.63-.799-.047.04-.096.077-.143.117a3.941 3.941 0 0 0-.875.99c-.119.192-.643.835-.87.513-.082-.116.044-.348.287-.535.216-.164.437-.302.655-.46.004-.264.105-.434.42-.663.182-.129.364-.228.545-.354a.475.475 0 0 0 .151-.16.786.786 0 0 1 .447-.476c.211-.093.401-.097.537-.093a.453.453 0 0 1 .338.188c.127.169.205.613.015.966-.063.116-.181.25-.29.342a.652.652 0 0 0-.192.237 4.138 4.138 0 0 1-.383.659c-.216.3-.405.397-.613.374-.182.226-.347.436-.539.629-.174.173-.379.279-.504.279-.036 0-.066-.009-.086-.028m-1.47-1.907c.001-.304.455-.347.567-.304.138.053.226.159.362.208.093.03.235-.006.404-.016-.296.186-.744.406-1.037.406-.176 0-.297-.079-.296-.294m.649-.551c-.053-.012-.09-.046-.137-.069.065-.077.164-.229.249-.294-.123-.027-.232-.037-.329-.075-.078-.028-.134-.083-.193-.138-.123-.117-.104-.164.097-.296.071-.046.136-.093.226-.154-.315-.224-.178-.553-.168-.551.102.027.176.058.277.012.096-.046.213-.17.3-.288.184-.244.444-.35.712-.284.191.046.315.285.263.543-.052.291-.364.594-.594.597-.139.003-.169-.041-.164-.214.092-.016.195.006.266-.052a.697.697 0 0 0 .193-.314c.039-.145-.017-.242-.138-.261-.209-.035-.444.116-.592.37a.99.99 0 0 0-.105.282c-.013.254.084.476.256.542.191.073.405.052.653-.084.435-.241.945-.874 1.369-1.125.409-.244.776-.047 1.003.238.008.011.027.019.033.033.001.007 0 .024.007.07-.6-.181-1.217.244-1.861.685-.346.24-.698.479-1.054.699a.854.854 0 0 1-.438.144.566.566 0 0 1-.131-.016m5.036-.311c-.321-.166-.463-.616-.167-1.193.073-.138.161-.284.262-.411.392-.496.832-.898 1.267-1.309.264-.254.512-.529.763-.807.646-.719.527-1.572.545-1.612.288.469.54.952.303 1.7-.151.467-.468.785-.795 1.069-.248.218-.508.403-.766.604-.351.273-.575.672-.589 1.013-.013.311.18.429.551.326l.16-.044c-.136.252-.38.423-.593.553-.229.139-.425.194-.596.194a.76.76 0 0 1-.345-.083m-.533-1.965c.449-.728.818-1.502 1.176-2.269.181-.38.44-.73.677-1.064.088-.122.272-.156.411-.183.097-.019.165-.047.227-.164.801-1.468 1.43-3.002 1.934-4.481.015-.05.027-.126.008-.169-.221-.443-.087-.76.143-1.048.182-.23.517-.696.648-.685.027.277.058.55.053.822-.001.245-.011.503-.082.732-.042.139-.195.22-.298.33-.074.078-.182.138-.216.235-.533 1.445-1.171 2.951-1.976 4.381-.08.148-.099.25-.049.394.084.251.005.53-.143.792-.381.665-.894 1.179-1.428 1.651a16.71 16.71 0 0 1-.994.795c-.042.033-.088.055-.168.105.039-.086.052-.134.077-.174m-1.451-.357c-.277-.205-.412-.511-.378-.979.026-.326.25-.788.466-.934.012.151.009.298.031.424.057.272.248.407.508.369.224-.036.537-.313.642-.584.176-.438.313-.886.457-1.331.166-.514.463-.831.887-.936.345-.086.679-.02 1.016.131-.143.087-.254.158-.37.224-.366.213-.608.585-.794 1.025-.232.548-.449 1.109-.762 1.617a3.696 3.696 0 0 1-.753.895c-.192.161-.371.227-.535.227a.698.698 0 0 1-.415-.148m-2.817-3.523c-.227.038-.458.074-.708.114-.069-.285.059-.539.223-.757.163-.212.376-.38.558-.569-.144-.065-.292-.126-.437-.188.244-.527.644-.785 1.284-.711.522.062 1.031.188 1.536.302.575.127 1.13.268 1.691.033.528-.218.846-.7 1.01-1.304.129-.481.058-.914-.164-1.392-.007-.014.1-.117.142-.143.065.194.265.494.306.695.294 1.51-.719 2.566-1.961 2.652-.489.04-.985-.019-1.485-.032-.41-.013-.818-.006-1.171.248-.42.308-.661.963-.3 1.484.207.297.595.423.917.271.212-.101.406-.408.398-.656-.004-.162-.05-.308-.197-.364-.14-.051-.256.003-.356.128-.016.018-.038.031-.057.047-.084-.214.081-.606.32-.682.414-.131.831.402.754.925-.067.479-.29.881-.711 1.069-.462.205-.854.132-1.182-.212-.039-.038-.075-.066-.108-.094-.173.181-.323.334-.488.498-.272-.486-.101-.897.186-1.362m2.347-.788c.471.015.961.619.739 1.156-.16.401-.643.731-1.018.961.581-.665.816-1.387.279-2.117m6.016-.837c.166-.279.276-.602.401-.906.452.275.772.821.586 1.412-.095.302-.259.581-.412.856-.117.206-.264.384-.39.583-.124.191-.232.394-.357.599-.287-.909-.294-1.747.172-2.544m-1.741-1.138c.147-.393.569-.531.988-.393.14.048.273.111.372.15-.129.341-.276.643-.385.968-.243.72-.698 1.061-1.258 1.162-.137.023-.279.031-.453.053.287-.671.502-1.322.736-1.94m-4.974.062c.086-.05.134-.076.198-.116-.261-.276-.653-.368-.867-.759.233-.004.435-.006.642-.008-.099-.243-.291-.738-.275-.751 1.2 1.156 2.326 1.23 3.608 1.039-.043.353-.849.965-1.344 1.077a2.078 2.078 0 0 1-.463.054c-.508 0-.986-.197-1.499-.536m7.592-.371c.321.126.64.243.955.309l-.061.162c-.054.135-.113.276-.172.42-.314-.254-.579-.579-.722-.891m.063-.795c-.018-.006-.031-.032-.063-.08.482-.086.661-.51.751-1.001.279.068.405.308.527.525.105-.096.203-.21.315-.292-.097.353-.206.715-.329 1.085a1.783 1.783 0 0 1-.192.012c-.34 0-.675-.104-1.009-.249m-4.191-1.691.181-.004a11.298 11.298 0 0 0-.332-.773c.019-.012.409.183.6.311.063-.164.118-.312.173-.462.385 1.267 1.288 1.991 2.195 2.72a1.206 1.206 0 0 1-.212.017c-.814 0-2.025-.69-2.605-1.809m2.947.858c-.314-.27-.606-.568-.764-.976-.155-.392-.106-.706.145-.973.315.287.55.576.458.94.22.012.43.027.696.046-.197.433-.319.816-.05 1.278-.015.012-.028.025-.044.035-.141-.119-.296-.228-.441-.35m1.857-.558c.162-.276.277-.519.44-.72.113-.149.299-.247.529-.149.08.032.188.116.243.199-.022.107-.046.214-.071.324-.162-.019-.287.076-.39.151a.991.991 0 0 1-.611.202 1.38 1.38 0 0 1-.14-.007m-1.662-1.307c-.065-.214-.155-.39-.441-.451.114-.166.288-.197.489-.174.189.023.321.157.403.304.125.223.139.491.109.722a1.33 1.33 0 0 1-.082.36 1.674 1.674 0 0 1-.478-.761m1.97-.364c.223-.127.549.02.728.387-.297-.082-.404.105-.556.259-.134.134-.306.222-.478.343-.089-.373.064-.855.306-.989m-1.248.06c.007-.202.01-.384-.197-.571.197-.058.369-.009.539.126a.473.473 0 0 1 .191.429c-.015.287-.225.63-.495.757-.006-.271-.049-.517-.038-.741m.916-.845a.132.132 0 0 1 .1-.066h.03a.353.353 0 0 1 .124.04c.137.069.183.147.162.253-.056.299-.275.485-.516.664-.046-.34-.059-.646.1-.891" style="fill:url(#aV);stroke:none"/></g></g><path d="m0 0 .408.233L-.703 2.17l-.408-.233.427-.747L-2.702.031l.254-.444L-.429.747zm1.821-2.227-1.998-.317L1.097-.966l-.396.687-2.425-1.393.253-.443L.385-1.05l.007-.012-1.464-1.747.208-.362 2.246.381.007-.009-1.854-1.066.254-.443 2.426 1.392z" style="fill:#bcbab7;fill-opacity:1;fill-rule:nonzero;stroke:none" transform="matrix(.72827 0 0 -.72827 25.99 32.245)"/><path d="M0 0c-.765 0-1.092 1.02-1.092 3.827 0 1.457.709 1.821 2.731 1.821.531 0 .955-.004 1.362-.011C2.356 3.652 1.491 0 0 0m-4.1 1.914c0-.743.071-1.377.2-1.914h-10.693c-1.422 0-2.331.329-2.331 1.641v3.643h3.368c.275.819.456 1.568.547 2.367h-3.914c.016 1.124.098 2.128.18 3.28-1.275-.455-2.276-.983-3.097-1.895V7.651h-1.731c-.145-.984-.145-1.729-.181-2.367h1.912V1.458c0-2.678 1.622-3.826 3.844-3.826h14.538c1.781 0 3.149 1.46 4.464 4.764v-4.764H5.92V7.651c-1.311.11-2.514.184-3.825.184-3.607 0-6.195-1.495-6.195-5.921m15.304 1.111v.983a24.66 24.66 0 0 1-.273 3.643H8.107c.091-1.274.182-2.367.182-3.643v-6.376h2.915c0 3.572 1.147 7.634 4.189 7.196 0 .638-.091 2.096-.272 3.007-2.221-.193-3.309-2.15-3.917-4.81M-28.949 0c-.765 0-1.093 1.02-1.093 3.827 0 1.457.711 1.821 2.732 1.821.531 0 .955-.004 1.364-.011C-26.593 3.652-27.456 0-28.949 0m-4.098 1.914c0-3.025 1.092-4.464 2.55-4.464 1.786 0 3.212 1.581 4.555 4.951v-4.769h2.915V7.651c-1.312.11-2.514.184-3.827.184-3.607 0-6.193-1.495-6.193-5.921M61.94 6.559c0 2.495-1.731 4.008-4.828 4.008-1.712 0-2.968-.364-3.734-.73-.437-.618-.637-1.33-.911-2.457 1.166.455 2.295.818 4.008.818 1.366 0 2.46-.583 2.46-2.186 0-1.729-1.075-2.987-6.924-6.375 0-.365.019-1.093.183-2.005h9.654c.275.82.456 1.548.547 2.368h-8.217c4.105 1.404 7.762 2.87 7.762 6.559M-39.912.43l-.15.081c-1.748.928-4.099 2.348-4.099 4.936 0 2.37 1.532 3.481 3.371 3.481 2.041 0 3.279-1.439 3.279-3.955 0-1.732-.954-3.26-2.401-4.543m5.589-2.98L-39.122.009c2.716.987 4.708 2.934 4.708 5.694 0 3.717-2.788 5.592-6.376 5.592-3.297 0-6.467-2.113-6.467-6.194 0-3.443 2.623-5.501 5.501-7.013l9.254-4.828c0 2.131-.254 3.353-1.821 4.19m68.207 1.094c-.818 0-3.37 1.658-3.37 6.101 0 2.188 1.276 3.553 3.37 3.553 2.095 0 3.372-1.365 3.372-3.553 0-4.443-2.551-6.101-3.372-6.101m0 12.023c-3.642 0-6.376-2.186-6.376-5.739 0-4.645 4.464-7.378 6.376-7.378 1.914 0 6.376 2.733 6.376 7.378 0 3.553-2.731 5.739-6.376 5.739m.041-4.967a8.171 8.171 0 0 1-1.666-1.592 8.225 8.225 0 0 1 1.666-1.592 8.341 8.341 0 0 1 1.668 1.592A8.286 8.286 0 0 1 33.925 5.6m16.721.959c0 2.495-1.732 4.008-4.83 4.008-1.711 0-2.968-.364-3.734-.73-.436-.618-.637-1.33-.911-2.457 1.167.455 2.297.818 4.009.818 1.366 0 2.46-.583 2.46-2.186 0-1.729-1.075-2.987-6.923-6.375 0-.365.018-1.093.182-2.005h9.656c.272.82.455 1.548.546 2.368h-8.218c4.106 1.404 7.763 2.87 7.763 6.559m-24.596 0c0 2.495-1.729 4.008-4.826 4.008-1.713 0-2.97-.364-3.734-.73-.438-.618-.639-1.33-.911-2.457 1.165.455 2.295.818 4.008.818 1.365 0 2.458-.583 2.458-2.186 0-1.729-1.075-2.987-6.922-6.375 0-.365.018-1.093.183-2.005h9.655c.274.82.455 1.548.545 2.368h-8.217c4.104 1.404 7.761 2.87 7.761 6.559" style="fill:#9a1032;fill-opacity:1;fill-rule:nonzero;stroke:none" transform="matrix(.52908 0 0 -.52908 28.506 75.544)"/><path d="M0 0a23.264 23.264 0 0 0-1.36-.295c-.497-.093-1.11-.138-1.843-.138a8.51 8.51 0 0 0-2.191.293 5.882 5.882 0 0 0-1.995.944 4.972 4.972 0 0 0-1.455 1.71c-.379.706-.566 1.572-.566 2.593 0 .938.156 1.762.465 2.468a4.839 4.839 0 0 0 1.292 1.766 5.466 5.466 0 0 0 1.966 1.051 8.365 8.365 0 0 0 2.468.348c.558 0 1.099-.053 1.625-.162a18.748 18.748 0 0 0 1.578-.394l-.23-2.338c-.465.259-.927.45-1.385.573a5.487 5.487 0 0 1-1.432.186c-.517 0-.98-.087-1.393-.264a3.127 3.127 0 0 1-1.061-.726 3.233 3.233 0 0 1-.682-1.108 3.96 3.96 0 0 1-.238-1.4c0-.526.089-1.001.271-1.425.179-.422.427-.78.742-1.075a3.196 3.196 0 0 1 1.137-.673 4.41 4.41 0 0 1 1.456-.232c.474 0 .944.054 1.408.163.465.107.892.239 1.284.394z" style="fill:#9a1032;fill-opacity:1;fill-rule:nonzero;stroke:none" transform="matrix(.52908 0 0 -.52908 55.444 67.683)"/><path d="M0 0c0-.744-.114-1.382-.341-1.92a3.462 3.462 0 0 0-.966-1.33 4.072 4.072 0 0 0-1.502-.782 6.8 6.8 0 0 0-1.928-.255c-.701 0-1.343.083-1.927.255-.582.17-1.082.43-1.501.782-.418.35-.739.794-.966 1.33-.227.538-.341 1.176-.341 1.92v6.702h2.879V.479c0-.361.028-.698.085-1.013.056-.316.156-.593.294-.836.139-.242.328-.433.565-.572.236-.14.542-.21.912-.21.372 0 .677.07.915.21.238.139.425.33.565.572.138.243.237.52.294.836.055.315.085.652.085 1.013v6.223H0Z" style="fill:#9a1032;fill-opacity:1;fill-rule:nonzero;stroke:none" transform="matrix(.52908 0 0 -.52908 60.93 65.644)"/><path d="M0 0h.742c.248 0 .48.024.697.069.216.048.405.13.564.248.16.118.287.274.38.465.092.19.139.425.139.703 0 .28-.047.512-.139.696-.093.186-.22.336-.38.45a1.488 1.488 0 0 1-.564.239 3.222 3.222 0 0 1-.697.071H0Zm-2.88 4.984H.556c1.662 0 2.885-.287 3.67-.859.783-.574 1.176-1.468 1.176-2.686 0-1.094-.377-1.948-1.13-2.561-.755-.615-1.807-.921-3.159-.921H0v-3.776h-2.88z" style="fill:#9a1032;fill-opacity:1;fill-rule:nonzero;stroke:none" transform="matrix(.52908 0 0 -.52908 63.216 64.735)"/><path d="M0 0h2.941l1.394-8.297h.031L5.819 0h3.653l1.517-8.297h.032L12.429 0h2.802l-2.416-10.804H9.117L7.585-2.508h-.032L6.13-10.804H2.399Z" style="fill:#9a1032;fill-opacity:1;fill-rule:nonzero;stroke:none" transform="matrix(.52908 0 0 -.52908 18.7 62.098)"/><path d="M0 0c0-.445.046-.875.14-1.293.092-.417.235-.786.432-1.106.196-.32.449-.575.76-.766.309-.191.679-.287 1.114-.287.432 0 .806.096 1.115.287.309.191.561.446.756.766.197.32.342.689.435 1.106.092.418.139.848.139 1.293 0 .463-.047.905-.139 1.322a3.502 3.502 0 0 1-.435 1.101 2.25 2.25 0 0 1-.756.75c-.309.186-.683.277-1.115.277-.435 0-.805-.091-1.114-.277a2.252 2.252 0 0 1-.76-.75A3.475 3.475 0 0 1 .14 1.322 6.008 6.008 0 0 1 0 0m-2.973 0c0 .867.117 1.646.349 2.337a4.662 4.662 0 0 0 1.029 1.756c.454.48 1.02.85 1.694 1.107.676.258 1.458.388 2.347.388.886 0 1.668-.13 2.344-.388a4.49 4.49 0 0 0 1.695-1.107c.454-.479.797-1.065 1.03-1.756.232-.691.347-1.47.347-2.337 0-.856-.115-1.63-.347-2.322a4.717 4.717 0 0 0-1.038-1.764A4.507 4.507 0 0 0 4.774-5.2c-.674-.259-1.453-.388-2.328-.388-.889 0-1.667.129-2.339.388a4.551 4.551 0 0 0-1.694 1.114 4.676 4.676 0 0 0-1.037 1.764C-2.856-1.63-2.973-.856-2.973 0" style="fill:#9a1032;fill-opacity:1;fill-rule:nonzero;stroke:none" transform="matrix(.52908 0 0 -.52908 28.389 64.956)"/><path d="M0 0h.757c.228 0 .468.008.72.024.254.015.481.064.682.146.201.084.369.207.502.372.135.166.201.402.201.713 0 .247-.058.45-.178.61-.118.16-.272.282-.463.364a2.472 2.472 0 0 1-.667.17 6.327 6.327 0 0 1-.797.047H0Zm-2.878 4.489H2.26c.473 0 .924-.055 1.346-.162a3.355 3.355 0 0 0 1.115-.505c.318-.227.569-.509.75-.849.181-.342.271-.744.271-1.208 0-.722-.17-1.316-.512-1.781-.339-.463-.861-.778-1.562-.944v-.03c.227-.061.41-.159.55-.295a1.88 1.88 0 0 0 .363-.502c.104-.202.198-.434.286-.697.089-.263.199-.56.335-.891l1.051-2.939H3.252l-.621 1.949c-.145.465-.282.847-.41 1.146-.129.298-.27.536-.418.711-.15.177-.32.297-.512.364a2.052 2.052 0 0 1-.687.101H0v-4.271h-2.878z" style="fill:#9a1032;fill-opacity:1;fill-rule:nonzero;stroke:none" transform="matrix(.52908 0 0 -.52908 34.645 64.473)"/><path d="M0 0h2.878v-8.668h4.458v-2.136H0Z" style="fill:#9a1032;fill-opacity:1;fill-rule:nonzero;stroke:none" transform="matrix(.52908 0 0 -.52908 38.609 62.098)"/><path d="M0 0h1.114c1.083 0 1.914.273 2.491.821.578.546.868 1.36.868 2.445 0 1.083-.296 1.898-.884 2.445-.588.547-1.412.821-2.475.821H0Zm-2.88 8.668h3.931c.94 0 1.802-.084 2.585-.248.785-.165 1.457-.452 2.021-.86.561-.407 1.001-.957 1.315-1.648.315-.69.473-1.558.473-2.6 0-1.012-.161-1.863-.481-2.554A4.336 4.336 0 0 0 5.633-.921c-.567-.428-1.243-.737-2.028-.928a10.773 10.773 0 0 0-2.554-.287H-2.88Z" style="fill:#9a1032;fill-opacity:1;fill-rule:nonzero;stroke:none" transform="matrix(.52908 0 0 -.52908 44.546 66.684)"/><path d="M0 0v-10.804h3.362v3.902h2.421l.861 2.361H3.362v2.188h4.076L8.296 0Z" style="fill:#9a1032;fill-opacity:1;fill-rule:evenodd;stroke:none" transform="matrix(.52908 0 0 -.52908 .265 62.098)"/><path d="M104.621 750.371h3.362v10.804h-3.362z" style="fill:#9a1032;fill-opacity:1;fill-rule:evenodd;stroke:none" transform="matrix(.52908 0 0 -.52908 -50.155 464.822)"/><path d="M0 0v-10.804h3.364v3.902h2.419l.861 2.361h-3.28v2.188h4.074L8.297 0Z" style="fill:#9a1032;fill-opacity:1;fill-rule:evenodd;stroke:none" transform="matrix(.52908 0 0 -.52908 8.201 62.098)"/><path d="m0 0-1.345 4.5L-2.643 0Zm4.391-3.528H.995L.556-2.076h-3.8l-.421-1.452h-3.31l3.936 10.804H.457z" style="fill:#9a1032;fill-opacity:1;fill-rule:evenodd;stroke:none" transform="matrix(.52908 0 0 -.52908 15.362 65.948)"/></svg>